# This file is brought to you by Roblox Corporation
# Generated by Roblox Studio

mtllib Extra.mtl

g Part1

v -0.0480239 0.315387 -0.0623859 
v -0.119955 0.245069 -0.0623859 
v -0.0590939 0.315117 -0.0623859 
v 0.0278231 0.234531 -0.0623859 
v 0.0397091 0.231362 -0.0576519 
v -0.0473839 0.324654 -0.0576519 
v 0.0397091 0.231362 0.0554581 
v -0.0473839 0.324654 0.0554581 
v -0.0480239 0.315387 0.0601921 
v 0.0278231 0.234531 0.0601921 
v -0.119955 0.245069 0.0601921 
v -0.0590939 0.315117 0.0601921 

vn 0 0 -1 
vn 0 0 -1 
vn 0 0 -1 
vn 0 0 -1 
vn 0.732283 0.685039 0 
vn 0.732283 0.685039 0 
vn 0.732283 0.685039 0 
vn 0.732283 0.685039 0 
vn 0 0 -1 
vn 0 0 -1 
vn 0 0 -1 
vn 0 0 -1 

vt 0 0 
vt 0 0 
vt 0 0 
vt 0 0 
vt 0 0 
vt 0 0 
vt 0 0 
vt 0 0 
vt 0 0 
vt 0 0 
vt 0 0 
vt 0 0 

usemtl Part1Mtl

f 1/1/1 2/2/2 3/3/3 
f 2/2/2 1/1/1 4/4/4 
f 5/5/5 6/6/6 7/7/7 
f 6/6/6 8/8/8 7/7/7 
f 9/9/9 10/10/10 11/11/11 
f 9/9/9 11/11/11 12/12/12 

g Part2

v 0.748406 0.178312 -0.044427 
v 0.746553 0.162033 0.037297 
v 0.746553 0.162033 -0.044427 
v 0.748406 0.178312 0.037297 
v -0.363959 0.243923 -0.044427 
v -0.363959 0.243923 0.037297 
v -0.355388 0.260202 -0.044427 
v -0.355388 0.260202 0.037297 
v -0.363959 0.243923 -0.044427 
v 0.746553 0.162033 -0.044427 
v 0.746553 0.162033 0.037297 
v -0.363959 0.243923 0.037297 
v 0.748406 0.178312 -0.044427 
v -0.355388 0.260202 -0.044427 
v -0.355388 0.260202 0.037297 
v 0.748406 0.178312 0.037297 

vn 0.992126 -0.110236 0 
vn 0.992126 -0.110236 0 
vn 0.992126 -0.110236 0 
vn 0.992126 -0.110236 0 
vn -0.88189 0.464567 0 
vn -0.88189 0.464567 0 
vn -0.88189 0.464567 0 
vn -0.88189 0.464567 0 
vn -0.0708661 -1 0 
vn -0.0708661 -1 0 
vn -0.0708661 -1 0 
vn -0.0708661 -1 0 
vn 0.0708661 1 0 
vn 0.0708661 1 0 
vn 0.0708661 1 0 
vn 0.0708661 1 0 

vt 0 0 
vt 0 0 
vt 0 0 
vt 0 0 
vt 0 0 
vt 0 0 
vt 0 0 
vt 0 0 
vt 0 0 
vt 0 0 
vt 0 0 
vt 0 0 
vt 0 0 
vt 0 0 
vt 0 0 
vt 0 0 

usemtl Part1Mtl

f 13/13/13 14/14/14 15/15/15 
f 14/14/14 13/13/13 16/16/16 
f 17/17/17 18/18/18 19/19/19 
f 19/19/19 18/18/18 20/20/20 
f 21/21/21 22/22/22 23/23/23 
f 21/21/21 23/23/23 24/24/24 
f 25/25/25 26/26/26 27/27/27 
f 25/25/25 27/27/27 28/28/28 

