# This file is brought to you by Roblox Corporation
# Generated by Roblox Studio

mtllib Body1.mtl

g Part1

v -0.132856 0.080704 -0.130095 
v -0.132856 0.100718 -0.130095 
v -0.125721 0.103673 -0.130095 
v -0.125721 0.077749 -0.130095 
v -0.144053 0.122005 -0.130095 
v -0.144053 0.059417 -0.130095 
v -0.147008 0.114871 -0.130095 
v -0.147008 0.066552 -0.130095 
v -0.167022 0.114871 -0.130095 
v -0.167022 0.066552 -0.130095 
v -0.169978 0.122005 -0.130095 
v -0.169978 0.059417 -0.130095 
v -0.181175 0.100718 -0.130095 
v -0.181175 0.080704 -0.130095 
v -0.188309 0.103673 -0.130095 
v -0.188309 0.077749 -0.130095 
v -0.125721 0.077749 0.122965 
v -0.125721 0.103673 0.122965 
v -0.132856 0.080704 0.122965 
v -0.144053 0.059417 0.122965 
v -0.132856 0.100718 0.122965 
v -0.147008 0.066552 0.122965 
v -0.144053 0.122005 0.122965 
v -0.167022 0.066552 0.122965 
v -0.147008 0.114871 0.122965 
v -0.169978 0.059417 0.122965 
v -0.167022 0.114871 0.122965 
v -0.181175 0.080704 0.122965 
v -0.169978 0.122005 0.122965 
v -0.188309 0.077749 0.122965 
v -0.181175 0.100718 0.122965 
v -0.188309 0.103673 0.122965 
v -0.169978 0.059417 -0.130095 
v -0.144053 0.059417 -0.130095 
v -0.142225 0.055004 -0.118589 
v -0.125721 0.077749 -0.130095 
v -0.171806 0.055004 -0.118589 
v -0.121308 0.075921 -0.118589 
v -0.192722 0.075921 -0.118589 
v -0.121308 0.105501 -0.118589 
v -0.188309 0.077749 -0.130095 
v -0.125721 0.103673 -0.130095 
v -0.188309 0.103673 -0.130095 
v -0.142225 0.126418 -0.118589 
v -0.192722 0.105501 -0.118589 
v -0.144053 0.122005 -0.130095 
v -0.169978 0.122005 -0.130095 
v -0.171806 0.126418 -0.118589 
v -0.144053 0.059417 0.122965 
v -0.169978 0.059417 0.122965 
v -0.142225 0.055004 0.111459 
v -0.125721 0.077749 0.122965 
v -0.171806 0.055004 0.111459 
v -0.121308 0.075921 0.111459 
v -0.192722 0.075921 0.111459 
v -0.121308 0.105501 0.111459 
v -0.188309 0.077749 0.122965 
v -0.125721 0.103673 0.122965 
v -0.188309 0.103673 0.122965 
v -0.142225 0.126418 0.111459 
v -0.192722 0.105501 0.111459 
v -0.144053 0.122005 0.122965 
v -0.169978 0.122005 0.122965 
v -0.171806 0.126418 0.111459 
v -0.114665 0.192953 -0.111492 
v -0.0358393 0.140904 -0.111673 
v -0.0547733 0.133061 -0.111492 
v -0.0547733 0.048361 -0.111492 
v -0.106822 0.211887 -0.111673 
v -0.0358393 0.040518 -0.111673 
v -0.199365 0.192953 -0.111492 
v -0.114665 -0.011531 -0.111492 
v -0.207208 0.211887 -0.111673 
v -0.106822 -0.030465 -0.111673 
v -0.259257 0.133061 -0.111492 
v -0.199365 -0.011531 -0.111492 
v -0.278192 0.140904 -0.111673 
v -0.207208 -0.030465 -0.111673 
v -0.278192 0.040518 -0.111673 
v -0.259257 0.048361 -0.111492 
v -0.259257 0.133061 0.104362 
v -0.278192 0.040518 0.104543 
v -0.259257 0.048361 0.104362 
v -0.207208 -0.030465 0.104543 
v -0.278192 0.140904 0.104543 
v -0.199365 -0.011531 0.104362 
v -0.207208 0.211887 0.104543 
v -0.106822 -0.030465 0.104543 
v -0.199365 0.192953 0.104362 
v -0.114665 -0.011531 0.104362 
v -0.106822 0.211887 0.104543 
v -0.0358393 0.040518 0.104543 
v -0.114665 0.192953 0.104362 
v -0.0547733 0.048361 0.104362 
v -0.0358393 0.140904 0.104543 
v -0.0547733 0.133061 0.104362 
v -0.278192 0.140904 -0.111673 
v -0.207208 0.211887 -0.075365 
v -0.207208 0.211887 -0.111673 
v -0.106822 0.211887 -0.075365 
v -0.278192 0.140904 -0.075365 
v -0.106822 0.211887 -0.111673 
v -0.278192 0.040518 -0.075365 
v -0.0358393 0.140904 -0.075365 
v -0.278192 0.040518 -0.111673 
v -0.0358393 0.140904 -0.111673 
v -0.207208 -0.030465 -0.111673 
v -0.0358393 0.040518 -0.075365 
v -0.207208 -0.030465 -0.075365 
v -0.0358393 0.040518 -0.111673 
v -0.106822 -0.030465 -0.111673 
v -0.106822 -0.030465 -0.075365 
v -0.0547733 0.133061 -0.111492 
v -0.0547733 0.133061 -0.075547 
v -0.114665 0.192953 -0.111492 
v -0.0547733 0.048361 -0.111492 
v -0.114665 0.192953 -0.075547 
v -0.0547733 0.048361 -0.075547 
v -0.199365 0.192953 -0.111492 
v -0.114665 -0.011531 -0.075547 
v -0.199365 0.192953 -0.075547 
v -0.114665 -0.011531 -0.111492 
v -0.259257 0.133061 -0.111492 
v -0.199365 -0.011531 -0.075547 
v -0.259257 0.133061 -0.075547 
v -0.199365 -0.011531 -0.111492 
v -0.259257 0.048361 -0.111492 
v -0.259257 0.048361 -0.075547 
v -0.0547733 0.048361 0.068417 
v -0.0547733 0.133061 0.104362 
v -0.0547733 0.133061 0.068417 
v -0.114665 0.192953 0.068417 
v -0.0547733 0.048361 0.104362 
v -0.114665 0.192953 0.104362 
v -0.114665 -0.011531 0.068417 
v -0.199365 0.192953 0.068417 
v -0.114665 -0.011531 0.104362 
v -0.199365 0.192953 0.104362 
v -0.199365 -0.011531 0.068417 
v -0.259257 0.133061 0.104362 
v -0.199365 -0.011531 0.104362 
v -0.259257 0.133061 0.068417 
v -0.259257 0.048361 0.068417 
v -0.259257 0.048361 0.104362 
v -0.278192 0.140904 0.104543 
v -0.207208 0.211887 0.068235 
v -0.278192 0.140904 0.068235 
v -0.207208 0.211887 0.104543 
v -0.278192 0.040518 0.104543 
v -0.106822 0.211887 0.068235 
v -0.278192 0.040518 0.068235 
v -0.106822 0.211887 0.104543 
v -0.207208 -0.030465 0.104543 
v -0.0358393 0.140904 0.068235 
v -0.207208 -0.030465 0.068235 
v -0.0358393 0.140904 0.104543 
v -0.106822 -0.030465 0.104543 
v -0.0358393 0.040518 0.068235 
v -0.106822 -0.030465 0.068235 
v -0.0358393 0.040518 0.104543 
v -0.114665 -0.011531 -0.075547 
v -0.0358393 0.040518 -0.075365 
v -0.0547733 0.048361 -0.075547 
v -0.0547733 0.133061 -0.075547 
v -0.106822 -0.030465 -0.075365 
v -0.0358393 0.140904 -0.075365 
v -0.199365 -0.011531 -0.075547 
v -0.114665 0.192953 -0.075547 
v -0.207208 -0.030465 -0.075365 
v -0.106822 0.211887 -0.075365 
v -0.259257 0.048361 -0.075547 
v -0.199365 0.192953 -0.075547 
v -0.278192 0.040518 -0.075365 
v -0.207208 0.211887 -0.075365 
v -0.278192 0.140904 -0.075365 
v -0.259257 0.133061 -0.075547 
v -0.114665 -0.011531 0.068417 
v -0.0358393 0.040518 0.068235 
v -0.106822 -0.030465 0.068235 
v -0.0547733 0.048361 0.068417 
v -0.199365 -0.011531 0.068417 
v -0.0547733 0.133061 0.068417 
v -0.207208 -0.030465 0.068235 
v -0.0358393 0.140904 0.068235 
v -0.259257 0.048361 0.068417 
v -0.114665 0.192953 0.068417 
v -0.278192 0.040518 0.068235 
v -0.106822 0.211887 0.068235 
v -0.278192 0.140904 0.068235 
v -0.199365 0.192953 0.068417 
v -0.259257 0.133061 0.068417 
v -0.207208 0.211887 0.068235 

vn 0 0 -1 
vn 0 0 -1 
vn 0 0 -1 
vn 0 0 -1 
vn 0 0 -1 
vn 0 0 -1 
vn 0 0 -1 
vn 0 0 -1 
vn 0 0 -1 
vn 0 0 -1 
vn 0 0 -1 
vn 0 0 -1 
vn 0 0 -1 
vn 0 0 -1 
vn 0 0 -1 
vn 0 0 -1 
vn 0 0 1 
vn 0 0 1 
vn 0 0 1 
vn 0 0 1 
vn 0 0 1 
vn 0 0 1 
vn 0 0 1 
vn 0 0 1 
vn 0 0 1 
vn 0 0 1 
vn 0 0 1 
vn 0 0 1 
vn 0 0 1 
vn 0 0 1 
vn 0 0 1 
vn 0 0 1 
vn -0.354331 -0.850394 -0.385827 
vn 0.354331 -0.850394 -0.385827 
vn 0.354331 -0.850394 -0.385827 
vn 0.850394 -0.354331 -0.385827 
vn -0.354331 -0.850394 -0.385827 
vn 0.850394 -0.354331 -0.385827 
vn -0.850394 -0.354331 -0.385827 
vn 0.850394 0.354331 -0.385827 
vn -0.850394 -0.354331 -0.385827 
vn 0.850394 0.354331 -0.385827 
vn -0.850394 0.354331 -0.385827 
vn 0.354331 0.850394 -0.385827 
vn -0.850394 0.354331 -0.385827 
vn 0.354331 0.850394 -0.385827 
vn -0.354331 0.850394 -0.385827 
vn -0.354331 0.850394 -0.385827 
vn 0.354331 -0.850394 0.385827 
vn -0.354331 -0.850394 0.385827 
vn 0.354331 -0.850394 0.385827 
vn 0.850394 -0.354331 0.385827 
vn -0.354331 -0.850394 0.385827 
vn 0.850394 -0.354331 0.385827 
vn -0.850394 -0.354331 0.385827 
vn 0.850394 0.354331 0.385827 
vn -0.850394 -0.354331 0.385827 
vn 0.850394 0.354331 0.385827 
vn -0.850394 0.354331 0.385827 
vn 0.354331 0.850394 0.385827 
vn -0.850394 0.354331 0.385827 
vn 0.354331 0.850394 0.385827 
vn -0.354331 0.850394 0.385827 
vn -0.354331 0.850394 0.385827 
vn 0 -0.00787402 -1 
vn -0.00787402 0 -1 
vn -0.00787402 0 -1 
vn -0.00787402 0 -1 
vn 0 -0.00787402 -1 
vn -0.00787402 0 -1 
vn 0 -0.00787402 -1 
vn 0 0.00787402 -1 
vn 0 -0.00787402 -1 
vn 0 0.00787402 -1 
vn 0.00787402 0 -1 
vn 0 0.00787402 -1 
vn 0.00787402 0 -1 
vn 0 0.00787402 -1 
vn 0.00787402 0 -1 
vn 0.00787402 0 -1 
vn 0.00787402 0 1 
vn 0.00787402 0 1 
vn 0.00787402 0 1 
vn 0 0.00787402 1 
vn 0.00787402 0 1 
vn 0 0.00787402 1 
vn 0 -0.00787402 1 
vn 0 0.00787402 1 
vn 0 -0.00787402 1 
vn 0 0.00787402 1 
vn 0 -0.00787402 1 
vn -0.00787402 0 1 
vn 0 -0.00787402 1 
vn -0.00787402 0 1 
vn -0.00787402 0 1 
vn -0.00787402 0 1 
vn -0.92126 0.385827 0 
vn -0.385827 0.92126 0 
vn -0.385827 0.92126 0 
vn 0.385827 0.92126 0 
vn -0.92126 0.385827 0 
vn 0.385827 0.92126 0 
vn -0.92126 -0.385827 0 
vn 0.92126 0.385827 0 
vn -0.92126 -0.385827 0 
vn 0.92126 0.385827 0 
vn -0.385827 -0.92126 0 
vn 0.92126 -0.385827 0 
vn -0.385827 -0.92126 0 
vn 0.92126 -0.385827 0 
vn 0.385827 -0.92126 0 
vn 0.385827 -0.92126 0 
vn -0.92126 -0.385827 0 
vn -0.92126 -0.385827 0 
vn -0.385827 -0.92126 0 
vn -0.92126 0.385827 0 
vn -0.385827 -0.92126 0 
vn -0.92126 0.385827 0 
vn 0.385827 -0.92126 0 
vn -0.385827 0.92126 0 
vn 0.385827 -0.92126 0 
vn -0.385827 0.92126 0 
vn 0.92126 -0.385827 0 
vn 0.385827 0.92126 0 
vn 0.92126 -0.385827 0 
vn 0.385827 0.92126 0 
vn 0.92126 0.385827 0 
vn 0.92126 0.385827 0 
vn -0.92126 0.385827 0 
vn -0.92126 -0.385827 0 
vn -0.92126 -0.385827 0 
vn -0.385827 -0.92126 0 
vn -0.92126 0.385827 0 
vn -0.385827 -0.92126 0 
vn -0.385827 0.92126 0 
vn 0.385827 -0.92126 0 
vn -0.385827 0.92126 0 
vn 0.385827 -0.92126 0 
vn 0.385827 0.92126 0 
vn 0.92126 -0.385827 0 
vn 0.385827 0.92126 0 
vn 0.92126 -0.385827 0 
vn 0.92126 0.385827 0 
vn 0.92126 0.385827 0 
vn -0.92126 0.385827 0 
vn -0.385827 0.92126 0 
vn -0.92126 0.385827 0 
vn -0.385827 0.92126 0 
vn -0.92126 -0.385827 0 
vn 0.385827 0.92126 0 
vn -0.92126 -0.385827 0 
vn 0.385827 0.92126 0 
vn -0.385827 -0.92126 0 
vn 0.92126 0.385827 0 
vn -0.385827 -0.92126 0 
vn 0.92126 0.385827 0 
vn 0.385827 -0.92126 0 
vn 0.92126 -0.385827 0 
vn 0.385827 -0.92126 0 
vn 0.92126 -0.385827 0 
vn 0 0.00787402 1 
vn -0.00787402 0 1 
vn -0.00787402 0 1 
vn -0.00787402 0 1 
vn 0 0.00787402 1 
vn -0.00787402 0 1 
vn 0 0.00787402 1 
vn 0 -0.00787402 1 
vn 0 0.00787402 1 
vn 0 -0.00787402 1 
vn 0.00787402 0 1 
vn 0 -0.00787402 1 
vn 0.00787402 0 1 
vn 0 -0.00787402 1 
vn 0.00787402 0 1 
vn 0.00787402 0 1 
vn 0 0.00787402 -1 
vn -0.00787402 0 -1 
vn 0 0.00787402 -1 
vn -0.00787402 0 -1 
vn 0 0.00787402 -1 
vn -0.00787402 0 -1 
vn 0 0.00787402 -1 
vn -0.00787402 0 -1 
vn 0.00787402 0 -1 
vn 0 -0.00787402 -1 
vn 0.00787402 0 -1 
vn 0 -0.00787402 -1 
vn 0.00787402 0 -1 
vn 0 -0.00787402 -1 
vn 0.00787402 0 -1 
vn 0 -0.00787402 -1 

vt 0 0 
vt 0 0 
vt 0 0 
vt 0 0 
vt 0 0 
vt 0 0 
vt 0 0 
vt 0 0 
vt 0 0 
vt 0 0 
vt 0 0 
vt 0 0 
vt 0 0 
vt 0 0 
vt 0 0 
vt 0 0 
vt 0 0 
vt 0 0 
vt 0 0 
vt 0 0 
vt 0 0 
vt 0 0 
vt 0 0 
vt 0 0 
vt 0 0 
vt 0 0 
vt 0 0 
vt 0 0 
vt 0 0 
vt 0 0 
vt 0 0 
vt 0 0 
vt 0 0 
vt 0 0 
vt 0 0 
vt 0 0 
vt 0 0 
vt 0 0 
vt 0 0 
vt 0 0 
vt 0 0 
vt 0 0 
vt 0 0 
vt 0 0 
vt 0 0 
vt 0 0 
vt 0 0 
vt 0 0 
vt 0 0 
vt 0 0 
vt 0 0 
vt 0 0 
vt 0 0 
vt 0 0 
vt 0 0 
vt 0 0 
vt 0 0 
vt 0 0 
vt 0 0 
vt 0 0 
vt 0 0 
vt 0 0 
vt 0 0 
vt 0 0 
vt 0 0 
vt 0 0 
vt 0 0 
vt 0 0 
vt 0 0 
vt 0 0 
vt 0 0 
vt 0 0 
vt 0 0 
vt 0 0 
vt 0 0 
vt 0 0 
vt 0 0 
vt 0 0 
vt 0 0 
vt 0 0 
vt 0 0 
vt 0 0 
vt 0 0 
vt 0 0 
vt 0 0 
vt 0 0 
vt 0 0 
vt 0 0 
vt 0 0 
vt 0 0 
vt 0 0 
vt 0 0 
vt 0 0 
vt 0 0 
vt 0 0 
vt 0 0 
vt 0 0 
vt 0 0 
vt 0 0 
vt 0 0 
vt 0 0 
vt 0 0 
vt 0 0 
vt 0 0 
vt 0 0 
vt 0 0 
vt 0 0 
vt 0 0 
vt 0 0 
vt 0 0 
vt 0 0 
vt 0 0 
vt 0 0 
vt 0 0 
vt 0 0 
vt 0 0 
vt 0 0 
vt 0 0 
vt 0 0 
vt 0 0 
vt 0 0 
vt 0 0 
vt 0 0 
vt 0 0 
vt 0 0 
vt 0 0 
vt 0 0 
vt 0 0 
vt 0 0 
vt 0 0 
vt 0 0 
vt 0 0 
vt 0 0 
vt 0 0 
vt 0 0 
vt 0 0 
vt 0 0 
vt 0 0 
vt 0 0 
vt 0 0 
vt 0 0 
vt 0 0 
vt 0 0 
vt 0 0 
vt 0 0 
vt 0 0 
vt 0 0 
vt 0 0 
vt 0 0 
vt 0 0 
vt 0 0 
vt 0 0 
vt 0 0 
vt 0 0 
vt 0 0 
vt 0 0 
vt 0 0 
vt 0 0 
vt 0 0 
vt 0 0 
vt 0 0 
vt 0 0 
vt 0 0 
vt 0 0 
vt 0 0 
vt 0 0 
vt 0 0 
vt 0 0 
vt 0 0 
vt 0 0 
vt 0 0 
vt 0 0 
vt 0 0 
vt 0 0 
vt 0 0 
vt 0 0 
vt 0 0 
vt 0 0 
vt 0 0 
vt 0 0 
vt 0 0 
vt 0 0 
vt 0 0 
vt 0 0 
vt 0 0 
vt 0 0 
vt 0 0 
vt 0 0 
vt 0 0 
vt 0 0 
vt 0 0 
vt 0 0 

usemtl Part1Mtl

f 1/1/1 2/2/2 3/3/3 
f 3/3/3 4/4/4 1/1/1 
f 2/2/2 5/5/5 3/3/3 
f 6/6/6 1/1/1 4/4/4 
f 5/5/5 2/2/2 7/7/7 
f 1/1/1 6/6/6 8/8/8 
f 9/9/9 5/5/5 7/7/7 
f 6/6/6 10/10/10 8/8/8 
f 5/5/5 9/9/9 11/11/11 
f 6/6/6 12/12/12 10/10/10 
f 13/13/13 11/11/11 9/9/9 
f 12/12/12 14/14/14 10/10/10 
f 11/11/11 13/13/13 15/15/15 
f 12/12/12 16/16/16 14/14/14 
f 13/13/13 16/16/16 15/15/15 
f 16/16/16 13/13/13 14/14/14 
f 17/17/17 18/18/18 19/19/19 
f 19/19/19 20/20/20 17/17/17 
f 19/19/19 18/18/18 21/21/21 
f 20/20/20 19/19/19 22/22/22 
f 18/18/18 23/23/23 21/21/21 
f 22/22/22 24/24/24 20/20/20 
f 21/21/21 23/23/23 25/25/25 
f 26/26/26 20/20/20 24/24/24 
f 23/23/23 27/27/27 25/25/25 
f 28/28/28 26/26/26 24/24/24 
f 27/27/27 23/23/23 29/29/29 
f 26/26/26 28/28/28 30/30/30 
f 29/29/29 31/31/31 27/27/27 
f 31/31/31 30/30/30 28/28/28 
f 31/31/31 29/29/29 32/32/32 
f 32/32/32 30/30/30 31/31/31 
f 33/33/33 34/34/34 35/35/35 
f 36/36/36 35/35/35 34/34/34 
f 33/33/33 35/35/35 37/37/37 
f 35/35/35 36/36/36 38/38/38 
f 39/39/39 33/33/33 37/37/37 
f 36/36/36 40/40/40 38/38/38 
f 33/33/33 39/39/39 41/41/41 
f 36/36/36 42/42/42 40/40/40 
f 43/43/43 41/41/41 39/39/39 
f 44/44/44 40/40/40 42/42/42 
f 43/43/43 39/39/39 45/45/45 
f 42/42/42 46/46/46 44/44/44 
f 47/47/47 43/43/43 45/45/45 
f 47/47/47 44/44/44 46/46/46 
f 45/45/45 48/48/48 47/47/47 
f 44/44/44 47/47/47 48/48/48 
f 49/49/49 50/50/50 51/51/51 
f 51/51/51 52/52/52 49/49/49 
f 53/53/53 51/51/51 50/50/50 
f 52/52/52 51/51/51 54/54/54 
f 50/50/50 55/55/55 53/53/53 
f 54/54/54 56/56/56 52/52/52 
f 55/55/55 50/50/50 57/57/57 
f 58/58/58 52/52/52 56/56/56 
f 57/57/57 59/59/59 55/55/55 
f 56/56/56 60/60/60 58/58/58 
f 61/61/61 55/55/55 59/59/59 
f 60/60/60 62/62/62 58/58/58 
f 61/61/61 59/59/59 63/63/63 
f 60/60/60 63/63/63 62/62/62 
f 64/64/64 61/61/61 63/63/63 
f 63/63/63 60/60/60 64/64/64 
f 65/65/65 66/66/66 67/67/67 
f 68/68/68 67/67/67 66/66/66 
f 66/66/66 65/65/65 69/69/69 
f 66/66/66 70/70/70 68/68/68 
f 71/71/71 69/69/69 65/65/65 
f 70/70/70 72/72/72 68/68/68 
f 69/69/69 71/71/71 73/73/73 
f 72/72/72 70/70/70 74/74/74 
f 75/75/75 73/73/73 71/71/71 
f 74/74/74 76/76/76 72/72/72 
f 73/73/73 75/75/75 77/77/77 
f 74/74/74 78/78/78 76/76/76 
f 75/75/75 79/79/79 77/77/77 
f 80/80/80 76/76/76 78/78/78 
f 79/79/79 75/75/75 80/80/80 
f 78/78/78 79/79/79 80/80/80 
f 81/81/81 82/82/82 83/83/83 
f 82/82/82 84/84/84 83/83/83 
f 85/85/85 82/82/82 81/81/81 
f 83/83/83 84/84/84 86/86/86 
f 81/81/81 87/87/87 85/85/85 
f 84/84/84 88/88/88 86/86/86 
f 87/87/87 81/81/81 89/89/89 
f 90/90/90 86/86/86 88/88/88 
f 89/89/89 91/91/91 87/87/87 
f 92/92/92 90/90/90 88/88/88 
f 91/91/91 89/89/89 93/93/93 
f 90/90/90 92/92/92 94/94/94 
f 93/93/93 95/95/95 91/91/91 
f 96/96/96 94/94/94 92/92/92 
f 95/95/95 93/93/93 96/96/96 
f 92/92/92 95/95/95 96/96/96 
f 97/97/97 98/98/98 99/99/99 
f 100/100/100 99/99/99 98/98/98 
f 98/98/98 97/97/97 101/101/101 
f 99/99/99 100/100/100 102/102/102 
f 97/97/97 103/103/103 101/101/101 
f 104/104/104 102/102/102 100/100/100 
f 97/97/97 105/105/105 103/103/103 
f 102/102/102 104/104/104 106/106/106 
f 107/107/107 103/103/103 105/105/105 
f 108/108/108 106/106/106 104/104/104 
f 103/103/103 107/107/107 109/109/109 
f 106/106/106 108/108/108 110/110/110 
f 111/111/111 109/109/109 107/107/107 
f 112/112/112 110/110/110 108/108/108 
f 109/109/109 111/111/111 112/112/112 
f 110/110/110 112/112/112 111/111/111 
f 113/113/113 114/114/114 115/115/115 
f 113/113/113 116/116/116 114/114/114 
f 115/115/115 114/114/114 117/117/117 
f 118/118/118 114/114/114 116/116/116 
f 119/119/119 115/115/115 117/117/117 
f 116/116/116 120/120/120 118/118/118 
f 119/119/119 117/117/117 121/121/121 
f 122/122/122 120/120/120 116/116/116 
f 119/119/119 121/121/121 123/123/123 
f 122/122/122 124/124/124 120/120/120 
f 123/123/123 121/121/121 125/125/125 
f 122/122/122 126/126/126 124/124/124 
f 127/127/127 123/123/123 125/125/125 
f 126/126/126 128/128/128 124/124/124 
f 127/127/127 125/125/125 128/128/128 
f 127/127/127 128/128/128 126/126/126 
f 129/129/129 130/130/130 131/131/131 
f 132/132/132 131/131/131 130/130/130 
f 130/130/130 129/129/129 133/133/133 
f 132/132/132 130/130/130 134/134/134 
f 135/135/135 133/133/133 129/129/129 
f 136/136/136 132/132/132 134/134/134 
f 133/133/133 135/135/135 137/137/137 
f 136/136/136 134/134/134 138/138/138 
f 139/139/139 137/137/137 135/135/135 
f 140/140/140 136/136/136 138/138/138 
f 137/137/137 139/139/139 141/141/141 
f 136/136/136 140/140/140 142/142/142 
f 143/143/143 141/141/141 139/139/139 
f 144/144/144 142/142/142 140/140/140 
f 141/141/141 143/143/143 144/144/144 
f 142/142/142 144/144/144 143/143/143 
f 145/145/145 146/146/146 147/147/147 
f 146/146/146 145/145/145 148/148/148 
f 147/147/147 149/149/149 145/145/145 
f 150/150/150 146/146/146 148/148/148 
f 147/147/147 151/151/151 149/149/149 
f 150/150/150 148/148/148 152/152/152 
f 151/151/151 153/153/153 149/149/149 
f 154/154/154 150/150/150 152/152/152 
f 151/151/151 155/155/155 153/153/153 
f 154/154/154 152/152/152 156/156/156 
f 155/155/155 157/157/157 153/153/153 
f 158/158/158 154/154/154 156/156/156 
f 155/155/155 159/159/159 157/157/157 
f 158/158/158 156/156/156 160/160/160 
f 159/159/159 160/160/160 157/157/157 
f 160/160/160 159/159/159 158/158/158 
f 161/161/161 162/162/162 163/163/163 
f 164/164/164 163/163/163 162/162/162 
f 162/162/162 161/161/161 165/165/165 
f 162/162/162 166/166/166 164/164/164 
f 167/167/167 165/165/165 161/161/161 
f 166/166/166 168/168/168 164/164/164 
f 165/165/165 167/167/167 169/169/169 
f 168/168/168 166/166/166 170/170/170 
f 171/171/171 169/169/169 167/167/167 
f 170/170/170 172/172/172 168/168/168 
f 169/169/169 171/171/171 173/173/173 
f 170/170/170 174/174/174 172/172/172 
f 171/171/171 175/175/175 173/173/173 
f 174/174/174 176/176/176 172/172/172 
f 175/175/175 171/171/171 176/176/176 
f 176/176/176 174/174/174 175/175/175 
f 177/177/177 178/178/178 179/179/179 
f 178/178/178 177/177/177 180/180/180 
f 179/179/179 181/181/181 177/177/177 
f 182/182/182 178/178/178 180/180/180 
f 181/181/181 179/179/179 183/183/183 
f 184/184/184 178/178/178 182/182/182 
f 183/183/183 185/185/185 181/181/181 
f 186/186/186 184/184/184 182/182/182 
f 185/185/185 183/183/183 187/187/187 
f 184/184/184 186/186/186 188/188/188 
f 187/187/187 189/189/189 185/185/185 
f 186/186/186 190/190/190 188/188/188 
f 185/185/185 189/189/189 191/191/191 
f 192/192/192 188/188/188 190/190/190 
f 189/189/189 192/192/192 191/191/191 
f 191/191/191 192/192/192 190/190/190 

g Part2

v 0.751532 0.125116 0.063763 
v 0.751532 0.125116 -0.070893 
v 0.763251 0.140691 -0.08 
v 0.763251 0.140691 0.07287 
v 0.755624 0.15376 -0.070893 
v 0.755624 0.15376 0.063763 
v 0.754598 0.104634 -0.078709 
v 0.749316 0.109607 0.063763 
v 0.754598 0.104634 0.071579 
v 0.749316 0.109607 -0.070893 
v 0.747987 0.100302 -0.070893 
v 0.747987 0.100302 0.063763 
v -0.628631 0.0124013 -0.062136 
v -0.673271 -0.0492217 -0.062131 
v -0.692772 -0.0374247 -0.00356504 
v -0.724541 -0.108626 -0.00356504 
v -0.703423 -0.117087 -0.062151 
v -0.645919 0.0274023 -0.00356504 
v -0.572266 0.0723223 -0.061918 
v -0.583402 0.0951363 -0.00356504 
v -0.572266 0.0723223 0.054788 
v -0.628631 0.0124013 0.055006 
v -0.673271 -0.0492217 0.055001 
v -0.703423 -0.117087 0.055021 
v -0.742009 -0.163092 -0.00355304 
v -0.720116 -0.169133 0.05502 
v -0.72011 -0.169117 -0.062151 
v -0.754273 -0.222498 -0.00354404 
v -0.732005 -0.226755 -0.062136 
v -0.73914 -0.295522 -0.061896 
v -0.731977 -0.240537 0.055028 
v -0.756192 -0.310347 -0.00355804 
v -0.739147 -0.295519 0.054764 
v -0.520601 -0.311396 -0.00356504 
v -0.756192 -0.310347 -0.00355804 
v -0.73914 -0.295522 -0.061896 
v -0.536767 -0.295554 -0.061901 
v -0.739147 -0.295519 0.054764 
v -0.536767 -0.295554 0.054771 
v -0.343903 0.236786 0.063763 
v -0.343903 0.236786 -0.070893 
v -0.361638 0.227077 -0.08 
v -0.361638 0.227077 0.07287 
v -0.363802 0.210917 -0.070893 
v -0.363802 0.210917 0.063763 
v -0.343903 0.236786 -0.070893 
v 0.755624 0.15376 0.063763 
v 0.755624 0.15376 -0.070893 
v -0.343903 0.236786 0.063763 
v 0.681465 0.30738 0.00167696 
v 0.650742 0.303351 -0.00828704 
v 0.681465 0.30738 0.00440696 
v 0.712188 0.31141 -0.00356504 
v 0.712188 0.31141 -0.00629504 
v 0.650742 0.303351 -0.011017 
v 0.588122 0.281868 -0.00629504 
v 0.588122 0.281868 -0.00356504 
v 0.0581871 0.105283 -0.077322 
v 0.754598 0.104634 -0.078709 
v 0.747987 0.100302 -0.070893 
v 0.0723641 0.0889343 -0.070893 
v 0.749316 0.109607 -0.070893 
v 0.0552011 0.123558 -0.070893 
v 0.0581871 0.105283 0.070192 
v 0.754598 0.104634 0.071579 
v 0.749316 0.109607 0.063763 
v 0.0552011 0.123558 0.063763 
v 0.747987 0.100302 0.063763 
v 0.0723641 0.0889343 0.063763 
v 0.763251 0.140691 -0.08 
v -0.361638 0.227077 -0.08 
v -0.343903 0.236786 -0.070893 
v 0.755624 0.15376 -0.070893 
v 0.00964208 0.195661 -0.070893 
v -0.363802 0.210917 -0.070893 
v 0.0265951 0.181266 -0.070893 
v 0.751532 0.125116 -0.070893 
v 0.763251 0.140691 0.07287 
v -0.361638 0.227077 0.07287 
v 0.00964208 0.195661 0.063763 
v -0.363802 0.210917 0.063763 
v 0.0265951 0.181266 0.063763 
v 0.751532 0.125116 0.063763 
v -0.343903 0.236786 0.063763 
v 0.755624 0.15376 0.063763 
v -0.519673 -0.0922767 -0.062151 
v -0.628631 0.0124013 -0.062136 
v -0.490375 -0.0387537 -0.062131 
v -0.572266 0.0723223 -0.061918 
v -0.454495 0.00154927 -0.061897 
v -0.673271 -0.0492217 -0.062131 
v -0.536554 -0.155992 -0.06216 
v -0.703423 -0.117087 -0.062151 
v -0.540656 -0.190248 -0.062139 
v -0.72011 -0.169117 -0.062151 
v -0.732005 -0.226755 -0.062136 
v -0.536767 -0.295554 -0.061901 
v -0.73914 -0.295522 -0.061896 
v -0.628631 0.0124013 0.055006 
v -0.490375 -0.0387537 0.055001 
v -0.572266 0.0723223 0.054788 
v -0.454495 0.00154927 0.054767 
v -0.519673 -0.0922767 0.055021 
v -0.673271 -0.0492217 0.055001 
v -0.536554 -0.155992 0.05503 
v -0.703423 -0.117087 0.055021 
v -0.540656 -0.190248 0.05501 
v -0.720116 -0.169133 0.05502 
v -0.731977 -0.240537 0.055028 
v -0.536767 -0.295554 0.054771 
v -0.739147 -0.295519 0.054764 
v 0.64606 0.249837 -0.011017 
v 0.588122 0.281868 -0.00629504 
v 0.650742 0.303351 -0.011017 
v 0.681465 0.30738 0.00167696 
v 0.675617 0.240534 0.00167696 
v 0.705173 0.231231 -0.00629504 
v 0.712188 0.31141 -0.00629504 
v 0.64606 0.249837 -0.00828704 
v 0.650742 0.303351 -0.00828704 
v 0.588122 0.281868 -0.00356504 
v 0.681465 0.30738 0.00440696 
v 0.675617 0.240534 0.00440696 
v 0.705173 0.231231 -0.00356504 
v 0.712188 0.31141 -0.00356504 
v 0.00964208 0.195661 0.063763 
v 0.00964208 0.195661 -0.070893 
v 0.0265951 0.181266 -0.070893 
v 0.0265951 0.181266 0.063763 
v -0.363802 0.210917 0.063763 
v -0.363802 0.210917 -0.070893 
v -0.583402 0.0951363 -0.00356504 
v -0.454495 0.00154927 -0.061897 
v -0.572266 0.0723223 -0.061918 
v -0.432284 0.00419027 -0.00356504 
v -0.454495 0.00154927 0.054767 
v -0.572266 0.0723223 0.054788 
v 0.0581871 0.105283 0.070192 
v 0.0581871 0.105283 -0.077322 
v 0.0723641 0.0889343 -0.070893 
v 0.0723641 0.0889343 0.063763 
v 0.0552011 0.123558 -0.070893 
v 0.0552011 0.123558 0.063763 
v -0.519673 -0.0922767 -0.062151 
v -0.490375 -0.0387537 -0.062131 
v -0.472047 -0.0523837 -0.00356504 
v -0.454495 0.00154927 -0.061897 
v -0.432284 0.00419027 -0.00356504 
v -0.490375 -0.0387537 0.055001 
v -0.454495 0.00154927 0.054767 
v -0.519673 -0.0922767 0.055021 
v -0.498683 -0.101064 -0.00356504 
v -0.536554 -0.155992 -0.06216 
v -0.536554 -0.155992 0.05503 
v -0.514293 -0.160475 -0.00356504 
v -0.540656 -0.190248 -0.062139 
v -0.540656 -0.190248 0.05501 
v -0.518017 -0.191158 -0.00356504 
v -0.536767 -0.295554 -0.061901 
v -0.536767 -0.295554 0.054771 
v -0.520601 -0.311396 -0.00356504 
v 0.675617 0.240534 0.00167696 
v 0.64606 0.249837 -0.00828704 
v 0.64606 0.249837 -0.011017 
v 0.588122 0.281868 -0.00629504 
v 0.588122 0.281868 -0.00356504 
v 0.675617 0.240534 0.00440696 
v 0.705173 0.231231 -0.00356504 
v 0.705173 0.231231 -0.00629504 

vn 0.795276 -0.598425 0 
vn 0.795276 -0.598425 0 
vn 0.992126 -0.0944882 0 
vn 0.992126 -0.0944882 0 
vn 0.866142 0.503937 0 
vn 0.866142 0.503937 0 
vn 0.992126 -0.125984 0 
vn 0.685039 0.732283 0 
vn 0.992126 -0.125984 0 
vn 0.685039 0.732283 0 
vn 0.551181 -0.834646 0 
vn 0.551181 -0.834646 0 
vn -0.716535 0.590551 -0.370079 
vn -0.811024 0.464567 -0.362205 
vn -0.866142 0.496063 0 
vn -0.937008 0.354331 0 
vn -0.874016 0.330709 -0.362205 
vn -0.771654 0.637795 0 
vn -0.677165 0.629921 -0.370079 
vn -0.732283 0.685039 0 
vn -0.677165 0.629921 0.370079 
vn -0.716535 0.590551 0.370079 
vn -0.811024 0.464567 0.362205 
vn -0.874016 0.330709 0.362205 
vn -0.968504 0.251969 0.00787402 
vn -0.897638 0.228346 0.370079 
vn -0.905512 0.23622 -0.362205 
vn -0.992126 0.133858 0.00787402 
vn -0.937008 0.11811 -0.338583 
vn -0.944882 0.0551181 -0.314961 
vn -0.929134 0.110236 0.346457 
vn -1 0.0629921 0 
vn -0.944882 0.0629921 0.322835 
vn 0 -1 0 
vn 0 -1 0 
vn 0 -0.968504 -0.251969 
vn 0 -0.968504 -0.251969 
vn 0 -0.968504 0.251969 
vn 0 -0.968504 0.251969 
vn -0.480315 0.874016 0 
vn -0.480315 0.874016 0 
vn -0.811024 0.582677 0 
vn -0.811024 0.582677 0 
vn -0.992126 0.133858 0 
vn -0.992126 0.133858 0 
vn 0.0787402 1 0 
vn 0.0787402 1 0 
vn 0.0787402 1 0 
vn 0.0787402 1 0 
vn -0.125984 0.992126 0 
vn -0.220472 0.976378 0 
vn -0.125984 0.992126 0 
vn -0.125984 0.992126 0 
vn -0.125984 0.992126 0 
vn -0.244094 0.968504 0 
vn -0.322835 0.944882 0 
vn -0.322835 0.944882 0 
vn 0.00787402 0.181102 -0.984252 
vn 0.00787402 0.015748 -1 
vn 0 -0.566929 -0.826772 
vn 0 -0.566929 -0.826772 
vn 0.00787402 0.519685 -0.850394 
vn 0.00787402 0.519685 -0.850394 
vn 0.00787402 0.181102 0.984252 
vn 0.00787402 0.015748 1 
vn 0.00787402 0.519685 0.850394 
vn 0.00787402 0.519685 0.850394 
vn 0 -0.566929 0.826772 
vn 0 -0.566929 0.826772 
vn 0 0.0393701 -1 
vn -0.015748 -0.228346 -0.976378 
vn 0.0472441 0.614173 -0.787402 
vn 0.0472441 0.614173 -0.787402 
vn -0.0393701 -0.543307 -0.834646 
vn -0.0393701 -0.543307 -0.834646 
vn -0.0393701 -0.543307 -0.834646 
vn -0.0393701 -0.543307 -0.834646 
vn 0 0.0393701 1 
vn -0.015748 -0.228346 0.976378 
vn -0.0393701 -0.543307 0.834646 
vn -0.0393701 -0.543307 0.834646 
vn -0.0393701 -0.543307 0.834646 
vn -0.0393701 -0.543307 0.834646 
vn 0.0472441 0.614173 0.787402 
vn 0.0472441 0.614173 0.787402 
vn 0 0 -1 
vn 0 0 -1 
vn 0 0 -1 
vn 0 0 -1 
vn 0 0 -1 
vn 0 0 -1 
vn 0 0 -1 
vn 0 0 -1 
vn 0 0 -1 
vn 0 0 -1 
vn 0 0 -1 
vn 0 0 -1 
vn 0 0 -1 
vn 0 0 1 
vn 0 0 1 
vn 0 0 1 
vn 0 0 1 
vn 0 0 1 
vn 0 0 1 
vn 0 0 1 
vn 0 0 1 
vn 0 0 1 
vn 0 0 1 
vn 0 0 1 
vn 0 0 1 
vn 0 0 1 
vn 0.204724 -0.015748 -0.976378 
vn -0.0787402 0.00787402 -1 
vn 0.204724 -0.015748 -0.976378 
vn 0.023622 0 -1 
vn 0.023622 0 -1 
vn -0.251969 0.023622 -0.968504 
vn -0.251969 0.023622 -0.968504 
vn -0.204724 0.015748 0.976378 
vn -0.204724 0.015748 0.976378 
vn 0.0787402 -0.00787402 1 
vn -0.023622 0 1 
vn -0.023622 0 1 
vn 0.251969 -0.023622 0.968504 
vn 0.251969 -0.023622 0.968504 
vn -0.362205 -0.929134 0 
vn -0.362205 -0.929134 0 
vn -0.645669 -0.76378 0 
vn -0.645669 -0.76378 0 
vn -0.0393701 -1 0 
vn -0.0393701 -1 0 
vn 0.511811 0.858268 0 
vn 0.503937 0.834646 -0.228346 
vn 0.503937 0.834646 -0.228346 
vn 0.511811 0.858268 0 
vn 0.503937 0.834646 0.228346 
vn 0.503937 0.834646 0.228346 
vn -0.905512 -0.433071 0 
vn -0.905512 -0.433071 0 
vn -0.755906 -0.653543 0 
vn -0.755906 -0.653543 0 
vn -0.984252 -0.165354 0 
vn -0.984252 -0.165354 0 
vn 0.866142 -0.346457 -0.362205 
vn 0.787402 -0.519685 -0.338583 
vn 0.834646 -0.551181 0 
vn 0.748031 -0.582677 -0.314961 
vn 0.787402 -0.614173 0 
vn 0.787402 -0.519685 0.338583 
vn 0.748031 -0.582677 0.314961 
vn 0.866142 -0.346457 0.362205 
vn 0.929134 -0.370079 0 
vn 0.913386 -0.173228 -0.362205 
vn 0.913386 -0.173228 0.362205 
vn 0.984252 -0.188976 0 
vn 0.937008 -0.0551181 -0.338583 
vn 0.937008 -0.0551181 0.338583 
vn 1 -0.0551181 0 
vn 0.952756 0.00787402 -0.314961 
vn 0.952756 0.00787402 0.314961 
vn 1 0.00787402 0 
vn -0.299213 -0.952756 0 
vn -0.385827 -0.92126 0 
vn -0.401575 -0.913386 0 
vn -0.488189 -0.874016 0 
vn -0.488189 -0.874016 0 
vn -0.299213 -0.952756 0 
vn -0.299213 -0.952756 0 
vn -0.299213 -0.952756 0 

vt 0 0 
vt 0 0 
vt 0 0 
vt 0 0 
vt 0 0 
vt 0 0 
vt 0 0 
vt 0 0 
vt 0 0 
vt 0 0 
vt 0 0 
vt 0 0 
vt 0 0 
vt 0 0 
vt 0 0 
vt 0 0 
vt 0 0 
vt 0 0 
vt 0 0 
vt 0 0 
vt 0 0 
vt 0 0 
vt 0 0 
vt 0 0 
vt 0 0 
vt 0 0 
vt 0 0 
vt 0 0 
vt 0 0 
vt 0 0 
vt 0 0 
vt 0 0 
vt 0 0 
vt 0 0 
vt 0 0 
vt 0 0 
vt 0 0 
vt 0 0 
vt 0 0 
vt 0 0 
vt 0 0 
vt 0 0 
vt 0 0 
vt 0 0 
vt 0 0 
vt 0 0 
vt 0 0 
vt 0 0 
vt 0 0 
vt 0 0 
vt 0 0 
vt 0 0 
vt 0 0 
vt 0 0 
vt 0 0 
vt 0 0 
vt 0 0 
vt 0 0 
vt 0 0 
vt 0 0 
vt 0 0 
vt 0 0 
vt 0 0 
vt 0 0 
vt 0 0 
vt 0 0 
vt 0 0 
vt 0 0 
vt 0 0 
vt 0 0 
vt 0 0 
vt 0 0 
vt 0 0 
vt 0 0 
vt 0 0 
vt 0 0 
vt 0 0 
vt 0 0 
vt 0 0 
vt 0 0 
vt 0 0 
vt 0 0 
vt 0 0 
vt 0 0 
vt 0 0 
vt 0 0 
vt 0 0 
vt 0 0 
vt 0 0 
vt 0 0 
vt 0 0 
vt 0 0 
vt 0 0 
vt 0 0 
vt 0 0 
vt 0 0 
vt 0 0 
vt 0 0 
vt 0 0 
vt 0 0 
vt 0 0 
vt 0 0 
vt 0 0 
vt 0 0 
vt 0 0 
vt 0 0 
vt 0 0 
vt 0 0 
vt 0 0 
vt 0 0 
vt 0 0 
vt 0 0 
vt 0 0 
vt 0 0 
vt 0 0 
vt 0 0 
vt 0 0 
vt 0 0 
vt 0 0 
vt 0 0 
vt 0 0 
vt 0 0 
vt 0 0 
vt 0 0 
vt 0 0 
vt 0 0 
vt 0 0 
vt 0 0 
vt 0 0 
vt 0 0 
vt 0 0 
vt 0 0 
vt 0 0 
vt 0 0 
vt 0 0 
vt 0 0 
vt 0 0 
vt 0 0 
vt 0 0 
vt 0 0 
vt 0 0 
vt 0 0 
vt 0 0 
vt 0 0 
vt 0 0 
vt 0 0 
vt 0 0 
vt 0 0 
vt 0 0 
vt 0 0 
vt 0 0 
vt 0 0 
vt 0 0 
vt 0 0 
vt 0 0 
vt 0 0 
vt 0 0 
vt 0 0 
vt 0 0 
vt 0 0 
vt 0 0 
vt 0 0 
vt 0 0 
vt 0 0 
vt 0 0 
vt 0 0 
vt 0 0 
vt 0 0 
vt 0 0 

usemtl Part1Mtl

f 193/193/193 194/194/194 195/195/195 
f 195/195/195 196/196/196 193/193/193 
f 196/196/196 195/195/195 197/197/197 
f 196/196/196 197/197/197 198/198/198 
f 199/199/199 200/200/200 201/201/201 
f 200/200/200 199/199/199 202/202/202 
f 201/201/201 203/203/203 199/199/199 
f 203/203/203 201/201/201 204/204/204 
f 205/205/205 206/206/206 207/207/207 
f 208/208/208 207/207/207 206/206/206 
f 206/206/206 209/209/209 208/208/208 
f 207/207/207 210/210/210 205/205/205 
f 211/211/211 205/205/205 210/210/210 
f 210/210/210 212/212/212 211/211/211 
f 210/210/210 213/213/213 212/212/212 
f 213/213/213 210/210/210 214/214/214 
f 207/207/207 214/214/214 210/210/210 
f 214/214/214 207/207/207 215/215/215 
f 208/208/208 215/215/215 207/207/207 
f 215/215/215 208/208/208 216/216/216 
f 217/217/217 216/216/216 208/208/208 
f 209/209/209 217/217/217 208/208/208 
f 216/216/216 217/217/217 218/218/218 
f 209/209/209 219/219/219 217/217/217 
f 220/220/220 218/218/218 217/217/217 
f 219/219/219 220/220/220 217/217/217 
f 219/219/219 221/221/221 220/220/220 
f 222/222/222 220/220/220 221/221/221 
f 218/218/218 220/220/220 223/223/223 
f 220/220/220 222/222/222 224/224/224 
f 224/224/224 223/223/223 220/220/220 
f 223/223/223 224/224/224 225/225/225 
f 226/226/226 227/227/227 228/228/228 
f 226/226/226 228/228/228 229/229/229 
f 226/226/226 230/230/230 227/227/227 
f 230/230/230 226/226/226 231/231/231 
f 232/232/232 233/233/233 234/234/234 
f 234/234/234 235/235/235 232/232/232 
f 235/235/235 234/234/234 236/236/236 
f 235/235/235 236/236/236 237/237/237 
f 238/238/238 239/239/239 240/240/240 
f 239/239/239 238/238/238 241/241/241 
f 242/242/242 243/243/243 244/244/244 
f 244/244/244 245/245/245 242/242/242 
f 242/242/242 245/245/245 246/246/246 
f 243/243/243 242/242/242 247/247/247 
f 248/248/248 243/243/243 247/247/247 
f 249/249/249 243/243/243 248/248/248 
f 250/250/250 251/251/251 252/252/252 
f 250/250/250 252/252/252 253/253/253 
f 250/250/250 254/254/254 251/251/251 
f 254/254/254 250/250/250 255/255/255 
f 256/256/256 257/257/257 258/258/258 
f 256/256/256 258/258/258 259/259/259 
f 256/256/256 260/260/260 257/257/257 
f 260/260/260 256/256/256 261/261/261 
f 262/262/262 263/263/263 264/264/264 
f 262/262/262 264/264/264 265/265/265 
f 263/263/263 262/262/262 266/266/266 
f 263/263/263 266/266/266 267/267/267 
f 266/266/266 262/262/262 268/268/268 
f 268/268/268 262/262/262 269/269/269 
f 270/270/270 271/271/271 272/272/272 
f 273/273/273 272/272/272 271/271/271 
f 274/274/274 270/270/270 272/272/272 
f 270/270/270 274/274/274 275/275/275 
f 270/270/270 276/276/276 271/271/271 
f 276/276/276 270/270/270 277/277/277 
f 278/278/278 279/279/279 280/280/280 
f 281/281/281 280/280/280 279/279/279 
f 280/280/280 281/281/281 282/282/282 
f 279/279/279 278/278/278 283/283/283 
f 284/284/284 283/283/283 278/278/278 
f 283/283/283 284/284/284 285/285/285 
f 286/286/286 285/285/285 284/284/284 
f 285/285/285 286/286/286 287/287/287 
f 287/287/287 286/286/286 288/288/288 
f 289/289/289 288/288/288 286/286/286 
f 288/288/288 289/289/289 290/290/290 
f 291/291/291 292/292/292 293/293/293 
f 293/293/293 292/292/292 294/294/294 
f 291/291/291 295/295/295 292/292/292 
f 295/295/295 291/291/291 296/296/296 
f 296/296/296 297/297/297 295/295/295 
f 298/298/298 297/297/297 296/296/296 
f 297/297/297 298/298/298 299/299/299 
f 300/300/300 299/299/299 298/298/298 
f 301/301/301 299/299/299 300/300/300 
f 301/301/301 302/302/302 299/299/299 
f 302/302/302 301/301/301 303/303/303 
f 304/304/304 305/305/305 306/306/306 
f 307/307/307 304/304/304 306/306/306 
f 304/304/304 307/307/307 308/308/308 
f 307/307/307 309/309/309 308/308/308 
f 310/310/310 309/309/309 307/307/307 
f 311/311/311 312/312/312 313/313/313 
f 311/311/311 314/314/314 312/312/312 
f 314/314/314 311/311/311 315/315/315 
f 314/314/314 315/315/315 316/316/316 
f 316/316/316 317/317/317 314/314/314 
f 318/318/318 319/319/319 320/320/320 
f 320/320/320 321/321/321 318/318/318 
f 318/318/318 322/322/322 319/319/319 
f 323/323/323 319/319/319 322/322/322 
f 324/324/324 325/325/325 326/326/326 
f 325/325/325 324/324/324 327/327/327 
f 324/324/324 328/328/328 327/327/327 
f 328/328/328 324/324/324 329/329/329 
f 330/330/330 331/331/331 332/332/332 
f 330/330/330 332/332/332 333/333/333 
f 330/330/330 334/334/334 331/331/331 
f 334/334/334 330/330/330 335/335/335 
f 336/336/336 337/337/337 338/338/338 
f 339/339/339 340/340/340 337/337/337 
f 337/337/337 340/340/340 338/338/338 
f 340/340/340 341/341/341 338/338/338 
f 341/341/341 340/340/340 342/342/342 
f 343/343/343 338/338/338 341/341/341 
f 336/336/336 338/338/338 344/344/344 
f 338/338/338 343/343/343 344/344/344 
f 345/345/345 336/336/336 344/344/344 
f 346/346/346 344/344/344 343/343/343 
f 345/345/345 344/344/344 347/347/347 
f 344/344/344 346/346/346 347/347/347 
f 345/345/345 347/347/347 348/348/348 
f 349/349/349 347/347/347 346/346/346 
f 348/348/348 347/347/347 350/350/350 
f 347/347/347 349/349/349 350/350/350 
f 351/351/351 348/348/348 350/350/350 
f 352/352/352 350/350/350 349/349/349 
f 350/350/350 353/353/353 351/351/351 
f 350/350/350 352/352/352 353/353/353 
f 354/354/354 355/355/355 356/356/356 
f 355/355/355 357/357/357 356/356/356 
f 357/357/357 355/355/355 358/358/358 
f 359/359/359 355/355/355 354/354/354 
f 354/354/354 360/360/360 359/359/359 
f 360/360/360 354/354/354 361/361/361 

g Part3

v -0.365849 0.24122 -0.042547 
v -0.329523 0.246287 0.035417 
v -0.329523 0.246287 -0.042547 
v -0.365849 0.24122 0.035417 
v -0.377401 0.212786 0.035417 
v -0.377401 0.212786 -0.042547 
v -0.410278 0.203234 0.035417 
v -0.410278 0.203234 -0.042547 
v -0.423606 0.207677 0.035417 
v -0.423606 0.207677 -0.042547 
v -0.474477 0.19657 0.035417 
v -0.474477 0.19657 -0.042547 
v -0.497357 0.157473 0.035417 
v -0.497357 0.157473 -0.042547 
v -0.51113 0.136591 0.035417 
v -0.51113 0.136591 -0.042547 
v -0.507576 0.117487 0.035417 
v -0.507576 0.117487 -0.042547 
v -0.387842 0.117487 0.035417 
v -0.387842 0.117487 -0.042547 
v 0.713915 0.317987 0.00619396 
v 0.71511 0.331646 0.00619396 
v 0.707665 0.318534 0.00333596 
v 0.70886 0.332193 0.00333596 
v 0.721359 0.331099 0.00333596 
v 0.705077 0.31876 -0.00356504 
v 0.720164 0.31744 0.00333596 
v 0.706272 0.332419 -0.00356504 
v 0.723948 0.330873 -0.00356504 
v 0.70886 0.332193 -0.010466 
v 0.722753 0.317213 -0.00356504 
v 0.707665 0.318534 -0.010466 
v 0.720164 0.31744 -0.010466 
v 0.71511 0.331646 -0.013324 
v 0.721359 0.331099 -0.010466 
v 0.713915 0.317987 -0.013324 
v 0.699484 0.199849 -0.00805204 
v 0.709664 0.316206 -0.00805204 
v 0.703548 0.199493 -0.00991104 
v 0.697801 0.199996 -0.00356504 
v 0.713728 0.315851 -0.00991104 
v 0.707981 0.316353 -0.00356504 
v 0.717791 0.315495 -0.00805204 
v 0.709664 0.316206 0.00092196 
v 0.707611 0.199138 -0.00805204 
v 0.699484 0.199849 0.00092196 
v 0.719475 0.315348 -0.00356504 
v 0.703548 0.199493 0.00278096 
v 0.709295 0.19899 -0.00356504 
v 0.713728 0.315851 0.00278096 
v 0.707611 0.199138 0.00092196 
v 0.717791 0.315495 0.00092196 
v 0.720269 0.193485 -0.038765 
v 0.720269 0.193485 0.031635 
v 0.732232 0.171669 -0.038765 
v 0.732232 0.171669 0.031635 
v 0.0966389 0.258072 -0.051344 
v 0.0926619 0.264976 -0.066518 
v 0.0966389 0.258072 -0.066518 
v 0.0926619 0.264976 -0.051344 
v 0.0966389 0.271879 -0.066518 
v 0.0966389 0.271879 -0.051344 
v 0.0966389 0.258072 0.044214 
v 0.0926619 0.264976 0.059388 
v 0.0926619 0.264976 0.044214 
v 0.0966389 0.258072 0.059388 
v 0.0966389 0.271879 0.059388 
v 0.0966389 0.271879 0.044214 
v -0.205078 0.280236 -0.05037 
v -0.334028 0.284119 -0.065401 
v -0.205078 0.280236 -0.065401 
v -0.334028 0.284119 -0.05037 
v -0.199113 0.274271 -0.05037 
v -0.199113 0.274271 -0.065401 
v -0.206817 0.241215 -0.05037 
v -0.206817 0.241215 -0.065401 
v -0.205078 0.280236 0.04324 
v -0.334028 0.284119 0.058271 
v -0.334028 0.284119 0.04324 
v -0.205078 0.280236 0.058271 
v -0.199113 0.274271 0.04324 
v -0.199113 0.274271 0.058271 
v -0.206817 0.241215 0.04324 
v -0.206817 0.241215 0.058271 
v 0.711233 0.334138 -0.00805204 
v 0.71936 0.333427 -0.00805204 
v 0.715297 0.333782 -0.00991104 
v 0.70955 0.334285 -0.00356504 
v 0.721043 0.333279 -0.00356504 
v 0.71936 0.333427 0.00092196 
v 0.711233 0.334138 0.00092196 
v 0.715297 0.333782 0.00278096 
v 0.715297 0.333782 0.00278096 
v 0.721359 0.331099 0.00333596 
v 0.71936 0.333427 0.00092196 
v 0.71511 0.331646 0.00619396 
v 0.723948 0.330873 -0.00356504 
v 0.70886 0.332193 0.00333596 
v 0.721043 0.333279 -0.00356504 
v 0.711233 0.334138 0.00092196 
v 0.71936 0.333427 -0.00805204 
v 0.706272 0.332419 -0.00356504 
v 0.721359 0.331099 -0.010466 
v 0.70955 0.334285 -0.00356504 
v 0.715297 0.333782 -0.00991104 
v 0.711233 0.334138 -0.00805204 
v 0.71511 0.331646 -0.013324 
v 0.70886 0.332193 -0.010466 
v 0.47648 0.191215 -0.066518 
v 0.499435 0.221965 -0.066518 
v 0.510821 0.189121 -0.066518 
v 0.484184 0.224271 -0.066518 
v 0.499021 0.232528 -0.066518 
v 0.485765 0.242055 -0.066518 
v 0.478219 0.230236 -0.066518 
v 0.0966389 0.271879 -0.066518 
v 0.0966389 0.258072 -0.066518 
v 0.0926619 0.264976 -0.066518 
v 0.215716 0.210001 -0.067853 
v 0.194139 0.242304 -0.066788 
v 0.212391 0.240707 -0.066788 
v 0.185532 0.212641 -0.067853 
v 0.47648 0.191215 0.059388 
v 0.499435 0.221965 0.059388 
v 0.484184 0.224271 0.059388 
v 0.510821 0.189121 0.059388 
v 0.499021 0.232528 0.059388 
v 0.485765 0.242055 0.059388 
v 0.478219 0.230236 0.059388 
v 0.0966389 0.271879 0.059388 
v 0.0966389 0.258072 0.059388 
v 0.0926619 0.264976 0.059388 
v 0.215716 0.210001 0.060723 
v 0.194139 0.242304 0.059658 
v 0.185532 0.212641 0.060723 
v 0.212391 0.240707 0.059658 
v 0.197522 0.255075 -0.064852 
v 0.211277 0.253871 -0.064852 
v 0.196544 0.243899 -0.064852 
v 0.210299 0.242695 -0.064852 
v -0.206817 0.241215 -0.065401 
v -0.183862 0.271965 -0.065401 
v -0.172476 0.239121 -0.065401 
v -0.199113 0.274271 -0.065401 
v -0.184276 0.282528 -0.065401 
v -0.197532 0.292055 -0.065401 
v -0.205078 0.280236 -0.065401 
v -0.334028 0.297926 -0.065401 
v -0.334028 0.284119 -0.065401 
v -0.338004 0.291023 -0.065401 
v 0.196544 0.243899 0.057722 
v 0.210299 0.242695 0.057722 
v 0.211277 0.253871 0.057722 
v 0.197522 0.255075 0.057722 
v -0.206817 0.241215 0.058271 
v -0.183862 0.271965 0.058271 
v -0.199113 0.274271 0.058271 
v -0.172476 0.239121 0.058271 
v -0.184276 0.282528 0.058271 
v -0.197532 0.292055 0.058271 
v -0.205078 0.280236 0.058271 
v -0.334028 0.297926 0.058271 
v -0.334028 0.284119 0.058271 
v -0.338004 0.291023 0.058271 
v -0.329523 0.246287 -0.042547 
v -0.377401 0.212786 -0.042547 
v -0.365849 0.24122 -0.042547 
v -0.387842 0.117487 -0.042547 
v -0.410278 0.203234 -0.042547 
v -0.423606 0.207677 -0.042547 
v -0.474477 0.19657 -0.042547 
v -0.497357 0.157473 -0.042547 
v -0.507576 0.117487 -0.042547 
v -0.51113 0.136591 -0.042547 
v -0.377401 0.212786 0.035417 
v -0.329523 0.246287 0.035417 
v -0.365849 0.24122 0.035417 
v -0.387842 0.117487 0.035417 
v -0.410278 0.203234 0.035417 
v -0.423606 0.207677 0.035417 
v -0.474477 0.19657 0.035417 
v -0.497357 0.157473 0.035417 
v -0.507576 0.117487 0.035417 
v -0.51113 0.136591 0.035417 
v 0.647166 0.193727 0.031635 
v 0.732232 0.171669 0.031635 
v 0.720269 0.193485 0.031635 
v 0.632613 0.180385 0.031635 
v 0.732232 0.171669 -0.038765 
v 0.647166 0.193727 -0.038765 
v 0.720269 0.193485 -0.038765 
v 0.632613 0.180385 -0.038765 
v 0.212391 0.240707 -0.066788 
v 0.196544 0.243899 -0.064852 
v 0.210299 0.242695 -0.064852 
v 0.194139 0.242304 -0.066788 
v 0.196544 0.243899 0.057722 
v 0.212391 0.240707 0.059658 
v 0.210299 0.242695 0.057722 
v 0.194139 0.242304 0.059658 
v 0.196544 0.243899 -0.053009 
v 0.211277 0.253871 -0.053009 
v 0.197522 0.255075 -0.053009 
v 0.210299 0.242695 -0.053009 
v 0.197522 0.255075 -0.064852 
v 0.196544 0.243899 -0.064852 
v 0.211277 0.253871 0.045879 
v 0.196544 0.243899 0.045879 
v 0.197522 0.255075 0.045879 
v 0.210299 0.242695 0.045879 
v 0.197522 0.255075 0.057722 
v 0.196544 0.243899 0.057722 
v 0.499021 0.232528 -0.051344 
v 0.499435 0.221965 -0.066518 
v 0.499021 0.232528 -0.066518 
v 0.499435 0.221965 -0.051344 
v 0.510821 0.189121 -0.051344 
v 0.510821 0.189121 -0.066518 
v 0.485765 0.242055 -0.051344 
v 0.485765 0.242055 -0.066518 
v 0.0966389 0.271879 -0.051344 
v 0.0966389 0.271879 -0.066518 
v 0.499021 0.232528 0.044214 
v 0.499435 0.221965 0.059388 
v 0.499435 0.221965 0.044214 
v 0.510821 0.189121 0.044214 
v 0.510821 0.189121 0.059388 
v 0.499021 0.232528 0.059388 
v 0.485765 0.242055 0.044214 
v 0.485765 0.242055 0.059388 
v 0.0966389 0.271879 0.044214 
v 0.0966389 0.271879 0.059388 
v 0.215716 0.210001 -0.050009 
v 0.194139 0.242304 -0.051074 
v 0.185532 0.212641 -0.050009 
v 0.212391 0.240707 -0.051074 
v 0.185532 0.212641 -0.067853 
v 0.194139 0.242304 -0.066788 
v 0.215716 0.210001 0.042879 
v 0.194139 0.242304 0.043944 
v 0.212391 0.240707 0.043944 
v 0.185532 0.212641 0.042879 
v 0.185532 0.212641 0.060723 
v 0.194139 0.242304 0.059658 
v 0.211277 0.253871 -0.064852 
v 0.197522 0.255075 -0.064852 
v 0.211277 0.253871 -0.053009 
v 0.197522 0.255075 -0.053009 
v 0.211277 0.253871 0.045879 
v 0.197522 0.255075 0.045879 
v 0.197522 0.255075 0.057722 
v 0.211277 0.253871 0.057722 
v 0.0966389 0.258072 -0.066518 
v 0.478219 0.230236 -0.066518 
v 0.478219 0.230236 -0.051344 
v 0.0966389 0.258072 -0.051344 
v 0.484184 0.224271 -0.051344 
v 0.484184 0.224271 -0.066518 
v 0.47648 0.191215 -0.051344 
v 0.47648 0.191215 -0.066518 
v 0.478219 0.230236 0.044214 
v 0.0966389 0.258072 0.059388 
v 0.0966389 0.258072 0.044214 
v 0.478219 0.230236 0.059388 
v 0.484184 0.224271 0.044214 
v 0.484184 0.224271 0.059388 
v 0.47648 0.191215 0.044214 
v 0.47648 0.191215 0.059388 
v 0.194139 0.242304 -0.051074 
v 0.212391 0.240707 -0.051074 
v 0.196544 0.243899 -0.053009 
v 0.210299 0.242695 -0.053009 
v 0.196544 0.243899 -0.064852 
v 0.194139 0.242304 -0.066788 
v 0.212391 0.240707 0.043944 
v 0.194139 0.242304 0.043944 
v 0.196544 0.243899 0.045879 
v 0.210299 0.242695 0.045879 
v 0.196544 0.243899 0.057722 
v 0.194139 0.242304 0.059658 
v 0.703548 0.199493 0.00495296 
v 0.698093 0.19997 0.00245796 
v 0.703351 0.197242 0.00697896 
v 0.703548 0.199493 0.00278096 
v 0.709003 0.199016 0.00245796 
v 0.699484 0.199849 0.00092196 
v 0.707611 0.199138 0.00092196 
v 0.695834 0.200168 -0.00356504 
v 0.697801 0.199996 -0.00356504 
v 0.699484 0.199849 -0.00805204 
v 0.698093 0.19997 -0.00958804 
v 0.703548 0.199493 -0.00991104 
v 0.693802 0.198077 -0.00356504 
v 0.703548 0.199493 -0.012083 
v 0.696599 0.197832 0.00388996 
v 0.693374 0.193186 -0.00356504 
v 0.696171 0.192941 0.00388996 
v 0.702923 0.19235 0.00697896 
v 0.696599 0.197832 -0.01102 
v 0.696171 0.192941 -0.01102 
v 0.702923 0.19235 -0.014109 
v 0.710103 0.196651 0.00388996 
v 0.709675 0.191759 0.00388996 
v 0.712899 0.196406 -0.00356504 
v 0.712471 0.191515 -0.00356504 
v 0.709675 0.191759 -0.01102 
v 0.703351 0.197242 -0.014109 
v 0.710103 0.196651 -0.01102 
v 0.709003 0.199016 -0.00958804 
v 0.707611 0.199138 -0.00805204 
v 0.711262 0.198818 -0.00356504 
v 0.709295 0.19899 -0.00356504 
v -0.206817 0.241215 -0.05037 
v -0.183862 0.271965 -0.05037 
v -0.199113 0.274271 -0.05037 
v -0.172476 0.239121 -0.05037 
v -0.184276 0.282528 -0.05037 
v -0.197532 0.292055 -0.05037 
v -0.205078 0.280236 -0.05037 
v -0.334028 0.297926 -0.05037 
v -0.334028 0.284119 -0.05037 
v -0.338004 0.291023 -0.05037 
v -0.205078 0.280236 0.04324 
v -0.334028 0.297926 0.04324 
v -0.197532 0.292055 0.04324 
v -0.334028 0.284119 0.04324 
v -0.338004 0.291023 0.04324 
v -0.199113 0.274271 0.04324 
v -0.184276 0.282528 0.04324 
v -0.183862 0.271965 0.04324 
v -0.206817 0.241215 0.04324 
v -0.172476 0.239121 0.04324 
v 0.47648 0.191215 -0.051344 
v 0.499435 0.221965 -0.051344 
v 0.484184 0.224271 -0.051344 
v 0.510821 0.189121 -0.051344 
v 0.499021 0.232528 -0.051344 
v 0.485765 0.242055 -0.051344 
v 0.478219 0.230236 -0.051344 
v 0.0966389 0.271879 -0.051344 
v 0.0966389 0.258072 -0.051344 
v 0.0926619 0.264976 -0.051344 
v 0.478219 0.230236 0.044214 
v 0.0966389 0.271879 0.044214 
v 0.485765 0.242055 0.044214 
v 0.0966389 0.258072 0.044214 
v 0.0926619 0.264976 0.044214 
v 0.484184 0.224271 0.044214 
v 0.499021 0.232528 0.044214 
v 0.499435 0.221965 0.044214 
v 0.47648 0.191215 0.044214 
v 0.510821 0.189121 0.044214 
v 0.720269 0.193485 -0.038765 
v 0.647166 0.193727 -0.038765 
v 0.647166 0.193727 0.031635 
v 0.720269 0.193485 0.031635 
v 0.212391 0.240707 -0.051074 
v 0.210299 0.242695 -0.064852 
v 0.210299 0.242695 -0.053009 
v 0.212391 0.240707 -0.066788 
v 0.212391 0.240707 0.043944 
v 0.210299 0.242695 0.057722 
v 0.212391 0.240707 0.059658 
v 0.210299 0.242695 0.045879 
v 0.215716 0.210001 -0.067853 
v 0.212391 0.240707 -0.066788 
v 0.212391 0.240707 -0.051074 
v 0.215716 0.210001 -0.050009 
v 0.212391 0.240707 0.059658 
v 0.215716 0.210001 0.060723 
v 0.212391 0.240707 0.043944 
v 0.215716 0.210001 0.042879 
v 0.210299 0.242695 -0.064852 
v 0.211277 0.253871 -0.064852 
v 0.211277 0.253871 -0.053009 
v 0.210299 0.242695 -0.053009 
v 0.210299 0.242695 0.045879 
v 0.211277 0.253871 0.045879 
v 0.210299 0.242695 0.057722 
v 0.211277 0.253871 0.057722 
v 0.713728 0.315851 0.00278096 
v 0.707665 0.318534 0.00333596 
v 0.709664 0.316206 0.00092196 
v 0.713915 0.317987 0.00619396 
v 0.705077 0.31876 -0.00356504 
v 0.720164 0.31744 0.00333596 
v 0.707981 0.316353 -0.00356504 
v 0.717791 0.315495 0.00092196 
v 0.709664 0.316206 -0.00805204 
v 0.722753 0.317213 -0.00356504 
v 0.707665 0.318534 -0.010466 
v 0.719475 0.315348 -0.00356504 
v 0.713728 0.315851 -0.00991104 
v 0.717791 0.315495 -0.00805204 
v 0.713915 0.317987 -0.013324 
v 0.720164 0.31744 -0.010466 
v -0.184276 0.282528 -0.05037 
v -0.183862 0.271965 -0.065401 
v -0.184276 0.282528 -0.065401 
v -0.183862 0.271965 -0.05037 
v -0.172476 0.239121 -0.05037 
v -0.172476 0.239121 -0.065401 
v -0.197532 0.292055 -0.05037 
v -0.197532 0.292055 -0.065401 
v -0.334028 0.297926 -0.05037 
v -0.334028 0.297926 -0.065401 
v -0.184276 0.282528 0.04324 
v -0.183862 0.271965 0.058271 
v -0.183862 0.271965 0.04324 
v -0.172476 0.239121 0.04324 
v -0.172476 0.239121 0.058271 
v -0.184276 0.282528 0.058271 
v -0.197532 0.292055 0.04324 
v -0.197532 0.292055 0.058271 
v -0.334028 0.297926 0.04324 
v -0.334028 0.297926 0.058271 
v 0.632613 0.180385 -0.038765 
v 0.632613 0.180385 0.031635 
v 0.647166 0.193727 -0.038765 
v 0.647166 0.193727 0.031635 
v -0.387842 0.117487 -0.042547 
v -0.329523 0.246287 -0.042547 
v -0.387842 0.117487 0.035417 
v -0.329523 0.246287 0.035417 

vn -0.614173 0.787402 0 
vn -0.141732 0.992126 0 
vn -0.141732 0.992126 0 
vn -0.614173 0.787402 0 
vn -0.669291 0.740157 0 
vn -0.669291 0.740157 0 
vn 0.015748 1 0 
vn 0.015748 1 0 
vn 0.0551181 1 0 
vn 0.0551181 1 0 
vn -0.590551 0.811024 0 
vn -0.590551 0.811024 0 
vn -0.850394 0.527559 0 
vn -0.850394 0.527559 0 
vn -0.976378 0.19685 0 
vn -0.976378 0.19685 0 
vn -0.637795 -0.771654 0 
vn -0.637795 -0.771654 0 
vn 0 -1 0 
vn 0 -1 0 
vn 0 0 1 
vn 0 0 1 
vn -0.716535 0.0629921 0.692913 
vn -0.716535 0.0629921 0.692913 
vn 0.716535 -0.0629921 0.692913 
vn -1 0.0866142 0 
vn 0.716535 -0.0629921 0.692913 
vn -1 0.0866142 0 
vn 1 -0.0866142 0 
vn -0.716535 0.0629921 -0.692913 
vn 1 -0.0866142 0 
vn -0.716535 0.0629921 -0.692913 
vn 0.716535 -0.0629921 -0.692913 
vn 0 0 -1 
vn 0.716535 -0.0629921 -0.692913 
vn 0 0 -1 
vn -0.716535 0.0629921 -0.692913 
vn -0.716535 0.0629921 -0.692913 
vn 0 0 -1 
vn -1 0.0866142 0 
vn 0 0 -1 
vn -1 0.0866142 0 
vn 0.716535 -0.0629921 -0.692913 
vn -0.716535 0.0629921 0.692913 
vn 0.716535 -0.0629921 -0.692913 
vn -0.716535 0.0629921 0.692913 
vn 1 -0.0866142 0 
vn 0 0 1 
vn 1 -0.0866142 0 
vn 0 0 1 
vn 0.716535 -0.0629921 0.692913 
vn 0.716535 -0.0629921 0.692913 
vn 0.874016 0.480315 0 
vn 0.874016 0.480315 0 
vn 0.874016 0.480315 0 
vn 0.874016 0.480315 0 
vn -0.866142 -0.496063 0 
vn -1 0 0 
vn -0.866142 -0.496063 0 
vn -1 0 0 
vn -0.866142 0.496063 0 
vn -0.866142 0.496063 0 
vn -0.866142 -0.496063 0 
vn -1 0 0 
vn -1 0 0 
vn -0.866142 -0.496063 0 
vn -0.866142 0.496063 0 
vn -0.866142 0.496063 0 
vn -0.393701 -0.92126 0 
vn -0.0314961 -1 0 
vn -0.393701 -0.92126 0 
vn -0.0314961 -1 0 
vn -0.96063 -0.275591 0 
vn -0.96063 -0.275591 0 
vn -0.976378 0.228346 0 
vn -0.976378 0.228346 0 
vn -0.393701 -0.92126 0 
vn -0.0314961 -1 0 
vn -0.0314961 -1 0 
vn -0.393701 -0.92126 0 
vn -0.96063 -0.275591 0 
vn -0.96063 -0.275591 0 
vn -0.976378 0.228346 0 
vn -0.976378 0.228346 0 
vn 0.0866142 1 0 
vn 0.0866142 1 0 
vn 0.0866142 1 0 
vn 0.0866142 1 0 
vn 0.0866142 1 0 
vn 0.0866142 1 0 
vn 0.0866142 1 0 
vn 0.0866142 1 0 
vn 0.0708661 0.84252 0.535433 
vn 0.456693 0.795276 0.393701 
vn 0.488189 0.795276 0.362205 
vn 0.0708661 0.84252 0.535433 
vn 0.637795 0.771654 0 
vn -0.307087 0.866142 0.393701 
vn 0.637795 0.771654 0 
vn -0.346457 0.866142 0.362205 
vn 0.488189 0.795276 -0.362205 
vn -0.496063 0.866142 0 
vn 0.456693 0.795276 -0.393701 
vn -0.496063 0.866142 0 
vn 0.0708661 0.84252 -0.535433 
vn -0.346457 0.866142 -0.362205 
vn 0.0708661 0.84252 -0.535433 
vn -0.307087 0.866142 -0.393701 
vn 0 0 -1 
vn 0 0 -1 
vn 0 0 -1 
vn 0 0 -1 
vn 0 0 -1 
vn 0 0 -1 
vn 0 0 -1 
vn 0 0 -1 
vn 0 0 -1 
vn 0 0 -1 
vn 0 0.0314961 -1 
vn 0 0.0314961 -1 
vn 0 0.0314961 -1 
vn 0 0.0314961 -1 
vn 0 0 1 
vn 0 0 1 
vn 0 0 1 
vn 0 0 1 
vn 0 0 1 
vn 0 0 1 
vn 0 0 1 
vn 0 0 1 
vn 0 0 1 
vn 0 0 1 
vn 0 0.0314961 1 
vn 0 0.0314961 1 
vn 0 0.0314961 1 
vn 0 0.0314961 1 
vn 0 0 -1 
vn 0 0 -1 
vn 0 0 -1 
vn 0 0 -1 
vn 0 0 -1 
vn 0 0 -1 
vn 0 0 -1 
vn 0 0 -1 
vn 0 0 -1 
vn 0 0 -1 
vn 0 0 -1 
vn 0 0 -1 
vn 0 0 -1 
vn 0 0 -1 
vn 0 0 1 
vn 0 0 1 
vn 0 0 1 
vn 0 0 1 
vn 0 0 1 
vn 0 0 1 
vn 0 0 1 
vn 0 0 1 
vn 0 0 1 
vn 0 0 1 
vn 0 0 1 
vn 0 0 1 
vn 0 0 1 
vn 0 0 1 
vn 0 0 -1 
vn 0 0 -1 
vn 0 0 -1 
vn 0 0 -1 
vn 0 0 -1 
vn 0 0 -1 
vn 0 0 -1 
vn 0 0 -1 
vn 0 0 -1 
vn 0 0 -1 
vn 0 0 1 
vn 0 0 1 
vn 0 0 1 
vn 0 0 1 
vn 0 0 1 
vn 0 0 1 
vn 0 0 1 
vn 0 0 1 
vn 0 0 1 
vn 0 0 1 
vn 0 0 1 
vn 0 0 1 
vn 0 0 1 
vn 0 0 1 
vn 0 0 -1 
vn 0 0 -1 
vn 0 0 -1 
vn 0 0 -1 
vn 0.0629921 0.732283 -0.677165 
vn 0.0629921 0.732283 -0.677165 
vn 0.0629921 0.732283 -0.677165 
vn 0.0629921 0.732283 -0.677165 
vn 0.0629921 0.732283 0.677165 
vn 0.0629921 0.732283 0.677165 
vn 0.0629921 0.732283 0.677165 
vn 0.0629921 0.732283 0.677165 
vn -0.661417 0.0551181 0.748031 
vn 0 0 1 
vn -0.661417 0.0551181 0.748031 
vn 0 0 1 
vn -1 0.0866142 0 
vn -1 0.0866142 0 
vn 0 0 -1 
vn -0.661417 0.0551181 -0.748031 
vn -0.661417 0.0551181 -0.748031 
vn 0 0 -1 
vn -1 0.0866142 0 
vn -1 0.0866142 0 
vn 0.88189 0.472441 0 
vn 0.984252 0.188976 0 
vn 0.88189 0.472441 0 
vn 0.984252 0.188976 0 
vn 0.944882 0.330709 0 
vn 0.944882 0.330709 0 
vn 0.338583 0.937008 0 
vn 0.338583 0.937008 0 
vn 0.0787402 1 0 
vn 0.0787402 1 0 
vn 0.88189 0.472441 0 
vn 0.984252 0.188976 0 
vn 0.984252 0.188976 0 
vn 0.944882 0.330709 0 
vn 0.944882 0.330709 0 
vn 0.88189 0.472441 0 
vn 0.338583 0.937008 0 
vn 0.338583 0.937008 0 
vn 0.0787402 1 0 
vn 0.0787402 1 0 
vn 0 0.0314961 1 
vn -0.598425 0.19685 0.779528 
vn -0.669291 0.220472 0.708661 
vn 0 0.0314961 1 
vn -0.96063 0.275591 0 
vn -0.96063 0.275591 0 
vn 0 0.0314961 -1 
vn -0.598425 0.19685 -0.779528 
vn 0 0.0314961 -1 
vn -0.669291 0.220472 -0.708661 
vn -0.96063 0.275591 0 
vn -0.96063 0.275591 0 
vn 0.0866142 1 0 
vn 0.0866142 1 0 
vn 0.0866142 1 0 
vn 0.0866142 1 0 
vn 0.0866142 1 0 
vn 0.0866142 1 0 
vn 0.0866142 1 0 
vn 0.0866142 1 0 
vn -0.0708661 -1 0 
vn -0.417323 -0.905512 0 
vn -0.417323 -0.905512 0 
vn -0.0708661 -1 0 
vn -0.96063 -0.275591 0 
vn -0.96063 -0.275591 0 
vn -0.976378 0.228346 0 
vn -0.976378 0.228346 0 
vn -0.417323 -0.905512 0 
vn -0.0708661 -1 0 
vn -0.0708661 -1 0 
vn -0.417323 -0.905512 0 
vn -0.96063 -0.275591 0 
vn -0.96063 -0.275591 0 
vn -0.976378 0.228346 0 
vn -0.976378 0.228346 0 
vn -0.267717 0.88189 0.393701 
vn 0.0629921 0.732283 0.677165 
vn -0.267717 0.88189 0.393701 
vn 0.0629921 0.732283 0.677165 
vn -0.551181 0.834646 0 
vn -0.551181 0.834646 0 
vn 0.0629921 0.732283 -0.677165 
vn -0.267717 0.88189 -0.393701 
vn -0.267717 0.88189 -0.393701 
vn 0.0629921 0.732283 -0.677165 
vn -0.551181 0.834646 0 
vn -0.551181 0.834646 0 
vn 0.0708661 0.850394 0.511811 
vn -0.299213 0.889764 0.338583 
vn 0.023622 0.314961 0.952756 
vn 0.0866142 1 0 
vn 0.448819 0.826772 0.338583 
vn 0.0866142 1 0 
vn 0.0866142 1 0 
vn -0.417323 0.905512 0 
vn 0.0866142 1 0 
vn 0.0866142 1 0 
vn -0.299213 0.889764 -0.338583 
vn 0.0866142 1 0 
vn -0.92126 0.393701 0 
vn 0.0708661 0.850394 -0.511811 
vn -0.645669 0.377953 0.669291 
vn -1 0.0866142 0 
vn -0.716535 0.0629921 0.692913 
vn 0 0 1 
vn -0.645669 0.377953 -0.669291 
vn -0.716535 0.0629921 -0.692913 
vn 0 0 -1 
vn 0.700787 0.259843 0.669291 
vn 0.716535 -0.0629921 0.692913 
vn 0.976378 0.228346 0 
vn 1 -0.0866142 0 
vn 0.716535 -0.0629921 -0.692913 
vn 0.023622 0.314961 -0.952756 
vn 0.700787 0.259843 -0.669291 
vn 0.448819 0.826772 -0.338583 
vn 0.0866142 1 0 
vn 0.566929 0.818898 0 
vn 0.0866142 1 0 
vn 0 0 1 
vn 0 0 1 
vn 0 0 1 
vn 0 0 1 
vn 0 0 1 
vn 0 0 1 
vn 0 0 1 
vn 0 0 1 
vn 0 0 1 
vn 0 0 1 
vn 0 0 -1 
vn 0 0 -1 
vn 0 0 -1 
vn 0 0 -1 
vn 0 0 -1 
vn 0 0 -1 
vn 0 0 -1 
vn 0 0 -1 
vn 0 0 -1 
vn 0 0 -1 
vn 0 0 1 
vn 0 0 1 
vn 0 0 1 
vn 0 0 1 
vn 0 0 1 
vn 0 0 1 
vn 0 0 1 
vn 0 0 1 
vn 0 0 1 
vn 0 0 1 
vn 0 0 -1 
vn 0 0 -1 
vn 0 0 -1 
vn 0 0 -1 
vn 0 0 -1 
vn 0 0 -1 
vn 0 0 -1 
vn 0 0 -1 
vn 0 0 -1 
vn 0 0 -1 
vn 0 1 0 
vn 0 1 0 
vn 0 1 0 
vn 0 1 0 
vn 0.692913 0.724409 0 
vn 0.692913 0.724409 0 
vn 0.692913 0.724409 0 
vn 0.692913 0.724409 0 
vn 0.692913 0.724409 0 
vn 0.692913 0.724409 0 
vn 0.692913 0.724409 0 
vn 0.692913 0.724409 0 
vn 0.992126 0.110236 0 
vn 0.992126 0.110236 0 
vn 0.992126 0.110236 0 
vn 0.992126 0.110236 0 
vn 0.992126 0.110236 0 
vn 0.992126 0.110236 0 
vn 0.992126 0.110236 0 
vn 0.992126 0.110236 0 
vn 1 -0.0866142 0 
vn 1 -0.0866142 0 
vn 1 -0.0866142 0 
vn 1 -0.0866142 0 
vn 1 -0.0866142 0 
vn 1 -0.0866142 0 
vn 1 -0.0866142 0 
vn 1 -0.0866142 0 
vn -0.0708661 -0.84252 0.535433 
vn -0.456693 -0.795276 0.393701 
vn -0.488189 -0.795276 0.362205 
vn -0.0708661 -0.84252 0.535433 
vn -0.637795 -0.771654 0 
vn 0.307087 -0.866142 0.393701 
vn -0.637795 -0.771654 0 
vn 0.346457 -0.866142 0.362205 
vn -0.488189 -0.795276 -0.362205 
vn 0.496063 -0.866142 0 
vn -0.456693 -0.795276 -0.393701 
vn 0.496063 -0.866142 0 
vn -0.0708661 -0.84252 -0.535433 
vn 0.346457 -0.866142 -0.362205 
vn -0.0708661 -0.84252 -0.535433 
vn 0.307087 -0.866142 -0.393701 
vn 0.88189 0.472441 0 
vn 0.984252 0.188976 0 
vn 0.88189 0.472441 0 
vn 0.984252 0.188976 0 
vn 0.944882 0.330709 0 
vn 0.944882 0.330709 0 
vn 0.322835 0.944882 0 
vn 0.322835 0.944882 0 
vn 0.0472441 1 0 
vn 0.0472441 1 0 
vn 0.88189 0.472441 0 
vn 0.984252 0.188976 0 
vn 0.984252 0.188976 0 
vn 0.944882 0.330709 0 
vn 0.944882 0.330709 0 
vn 0.88189 0.472441 0 
vn 0.322835 0.944882 0 
vn 0.322835 0.944882 0 
vn 0.0472441 1 0 
vn 0.0472441 1 0 
vn -0.677165 0.740157 0 
vn -0.677165 0.740157 0 
vn -0.677165 0.740157 0 
vn -0.677165 0.740157 0 
vn 0.913386 -0.409449 0 
vn 0.913386 -0.409449 0 
vn 0.913386 -0.409449 0 
vn 0.913386 -0.409449 0 

vt 0 0 
vt 0 0 
vt 0 0 
vt 0 0 
vt 0 0 
vt 0 0 
vt 0 0 
vt 0 0 
vt 0 0 
vt 0 0 
vt 0 0 
vt 0 0 
vt 0 0 
vt 0 0 
vt 0 0 
vt 0 0 
vt 0 0 
vt 0 0 
vt 0 0 
vt 0 0 
vt 0 0 
vt 0 0 
vt 0 0 
vt 0 0 
vt 0 0 
vt 0 0 
vt 0 0 
vt 0 0 
vt 0 0 
vt 0 0 
vt 0 0 
vt 0 0 
vt 0 0 
vt 0 0 
vt 0 0 
vt 0 0 
vt 0 0 
vt 0 0 
vt 0 0 
vt 0 0 
vt 0 0 
vt 0 0 
vt 0 0 
vt 0 0 
vt 0 0 
vt 0 0 
vt 0 0 
vt 0 0 
vt 0 0 
vt 0 0 
vt 0 0 
vt 0 0 
vt 0 0 
vt 0 0 
vt 0 0 
vt 0 0 
vt 0 0 
vt 0 0 
vt 0 0 
vt 0 0 
vt 0 0 
vt 0 0 
vt 0 0 
vt 0 0 
vt 0 0 
vt 0 0 
vt 0 0 
vt 0 0 
vt 0 0 
vt 0 0 
vt 0 0 
vt 0 0 
vt 0 0 
vt 0 0 
vt 0 0 
vt 0 0 
vt 0 0 
vt 0 0 
vt 0 0 
vt 0 0 
vt 0 0 
vt 0 0 
vt 0 0 
vt 0 0 
vt 0 0 
vt 0 0 
vt 0 0 
vt 0 0 
vt 0 0 
vt 0 0 
vt 0 0 
vt 0 0 
vt 0 0 
vt 0 0 
vt 0 0 
vt 0 0 
vt 0 0 
vt 0 0 
vt 0 0 
vt 0 0 
vt 0 0 
vt 0 0 
vt 0 0 
vt 0 0 
vt 0 0 
vt 0 0 
vt 0 0 
vt 0 0 
vt 0 0 
vt 0 0 
vt 0 0 
vt 0 0 
vt 0 0 
vt 0 0 
vt 0 0 
vt 0 0 
vt 0 0 
vt 0 0 
vt 0 0 
vt 0 0 
vt 0 0 
vt 0 0 
vt 0 0 
vt 0 0 
vt 0 0 
vt 0 0 
vt 0 0 
vt 0 0 
vt 0 0 
vt 0 0 
vt 0 0 
vt 0 0 
vt 0 0 
vt 0 0 
vt 0 0 
vt 0 0 
vt 0 0 
vt 0 0 
vt 0 0 
vt 0 0 
vt 0 0 
vt 0 0 
vt 0 0 
vt 0 0 
vt 0 0 
vt 0 0 
vt 0 0 
vt 0 0 
vt 0 0 
vt 0 0 
vt 0 0 
vt 0 0 
vt 0 0 
vt 0 0 
vt 0 0 
vt 0 0 
vt 0 0 
vt 0 0 
vt 0 0 
vt 0 0 
vt 0 0 
vt 0 0 
vt 0 0 
vt 0 0 
vt 0 0 
vt 0 0 
vt 0 0 
vt 0 0 
vt 0 0 
vt 0 0 
vt 0 0 
vt 0 0 
vt 0 0 
vt 0 0 
vt 0 0 
vt 0 0 
vt 0 0 
vt 0 0 
vt 0 0 
vt 0 0 
vt 0 0 
vt 0 0 
vt 0 0 
vt 0 0 
vt 0 0 
vt 0 0 
vt 0 0 
vt 0 0 
vt 0 0 
vt 0 0 
vt 0 0 
vt 0 0 
vt 0 0 
vt 0 0 
vt 0 0 
vt 0 0 
vt 0 0 
vt 0 0 
vt 0 0 
vt 0 0 
vt 0 0 
vt 0 0 
vt 0 0 
vt 0 0 
vt 0 0 
vt 0 0 
vt 0 0 
vt 0 0 
vt 0 0 
vt 0 0 
vt 0 0 
vt 0 0 
vt 0 0 
vt 0 0 
vt 0 0 
vt 0 0 
vt 0 0 
vt 0 0 
vt 0 0 
vt 0 0 
vt 0 0 
vt 0 0 
vt 0 0 
vt 0 0 
vt 0 0 
vt 0 0 
vt 0 0 
vt 0 0 
vt 0 0 
vt 0 0 
vt 0 0 
vt 0 0 
vt 0 0 
vt 0 0 
vt 0 0 
vt 0 0 
vt 0 0 
vt 0 0 
vt 0 0 
vt 0 0 
vt 0 0 
vt 0 0 
vt 0 0 
vt 0 0 
vt 0 0 
vt 0 0 
vt 0 0 
vt 0 0 
vt 0 0 
vt 0 0 
vt 0 0 
vt 0 0 
vt 0 0 
vt 0 0 
vt 0 0 
vt 0 0 
vt 0 0 
vt 0 0 
vt 0 0 
vt 0 0 
vt 0 0 
vt 0 0 
vt 0 0 
vt 0 0 
vt 0 0 
vt 0 0 
vt 0 0 
vt 0 0 
vt 0 0 
vt 0 0 
vt 0 0 
vt 0 0 
vt 0 0 
vt 0 0 
vt 0 0 
vt 0 0 
vt 0 0 
vt 0 0 
vt 0 0 
vt 0 0 
vt 0 0 
vt 0 0 
vt 0 0 
vt 0 0 
vt 0 0 
vt 0 0 
vt 0 0 
vt 0 0 
vt 0 0 
vt 0 0 
vt 0 0 
vt 0 0 
vt 0 0 
vt 0 0 
vt 0 0 
vt 0 0 
vt 0 0 
vt 0 0 
vt 0 0 
vt 0 0 
vt 0 0 
vt 0 0 
vt 0 0 
vt 0 0 
vt 0 0 
vt 0 0 
vt 0 0 
vt 0 0 
vt 0 0 
vt 0 0 
vt 0 0 
vt 0 0 
vt 0 0 
vt 0 0 
vt 0 0 
vt 0 0 
vt 0 0 
vt 0 0 
vt 0 0 
vt 0 0 
vt 0 0 
vt 0 0 
vt 0 0 
vt 0 0 
vt 0 0 
vt 0 0 
vt 0 0 
vt 0 0 
vt 0 0 
vt 0 0 
vt 0 0 
vt 0 0 
vt 0 0 
vt 0 0 
vt 0 0 
vt 0 0 
vt 0 0 
vt 0 0 
vt 0 0 
vt 0 0 
vt 0 0 
vt 0 0 
vt 0 0 
vt 0 0 
vt 0 0 
vt 0 0 
vt 0 0 
vt 0 0 
vt 0 0 
vt 0 0 
vt 0 0 
vt 0 0 
vt 0 0 
vt 0 0 
vt 0 0 
vt 0 0 
vt 0 0 
vt 0 0 
vt 0 0 
vt 0 0 
vt 0 0 
vt 0 0 
vt 0 0 
vt 0 0 
vt 0 0 
vt 0 0 
vt 0 0 
vt 0 0 
vt 0 0 
vt 0 0 
vt 0 0 
vt 0 0 
vt 0 0 
vt 0 0 
vt 0 0 
vt 0 0 
vt 0 0 
vt 0 0 
vt 0 0 
vt 0 0 
vt 0 0 
vt 0 0 
vt 0 0 
vt 0 0 
vt 0 0 
vt 0 0 
vt 0 0 
vt 0 0 
vt 0 0 
vt 0 0 
vt 0 0 
vt 0 0 
vt 0 0 
vt 0 0 
vt 0 0 
vt 0 0 
vt 0 0 
vt 0 0 
vt 0 0 
vt 0 0 
vt 0 0 
vt 0 0 
vt 0 0 
vt 0 0 
vt 0 0 
vt 0 0 
vt 0 0 
vt 0 0 
vt 0 0 
vt 0 0 
vt 0 0 
vt 0 0 
vt 0 0 
vt 0 0 
vt 0 0 
vt 0 0 
vt 0 0 
vt 0 0 
vt 0 0 
vt 0 0 
vt 0 0 
vt 0 0 
vt 0 0 
vt 0 0 

usemtl Part1Mtl

f 362/362/362 363/363/363 364/364/364 
f 363/363/363 362/362/362 365/365/365 
f 362/362/362 366/366/366 365/365/365 
f 366/366/366 362/362/362 367/367/367 
f 367/367/367 368/368/368 366/366/366 
f 368/368/368 367/367/367 369/369/369 
f 369/369/369 370/370/370 368/368/368 
f 370/370/370 369/369/369 371/371/371 
f 371/371/371 372/372/372 370/370/370 
f 373/373/373 372/372/372 371/371/371 
f 373/373/373 374/374/374 372/372/372 
f 374/374/374 373/373/373 375/375/375 
f 375/375/375 376/376/376 374/374/374 
f 377/377/377 376/376/376 375/375/375 
f 377/377/377 378/378/378 376/376/376 
f 378/378/378 377/377/377 379/379/379 
f 379/379/379 380/380/380 378/378/378 
f 381/381/381 380/380/380 379/379/379 
f 382/382/382 383/383/383 384/384/384 
f 384/384/384 383/383/383 385/385/385 
f 382/382/382 386/386/386 383/383/383 
f 384/384/384 385/385/385 387/387/387 
f 388/388/388 386/386/386 382/382/382 
f 389/389/389 387/387/387 385/385/385 
f 388/388/388 390/390/390 386/386/386 
f 391/391/391 387/387/387 389/389/389 
f 390/390/390 388/388/388 392/392/392 
f 387/387/387 391/391/391 393/393/393 
f 394/394/394 390/390/390 392/392/392 
f 395/395/395 393/393/393 391/391/391 
f 390/390/390 394/394/394 396/396/396 
f 393/393/393 395/395/395 397/397/397 
f 397/397/397 396/396/396 394/394/394 
f 396/396/396 397/397/397 395/395/395 
f 398/398/398 399/399/399 400/400/400 
f 401/401/401 399/399/399 398/398/398 
f 402/402/402 400/400/400 399/399/399 
f 399/399/399 401/401/401 403/403/403 
f 404/404/404 400/400/400 402/402/402 
f 403/403/403 401/401/401 405/405/405 
f 400/400/400 404/404/404 406/406/406 
f 407/407/407 405/405/405 401/401/401 
f 408/408/408 406/406/406 404/404/404 
f 409/409/409 405/405/405 407/407/407 
f 406/406/406 408/408/408 410/410/410 
f 405/405/405 409/409/409 411/411/411 
f 408/408/408 412/412/412 410/410/410 
f 409/409/409 413/413/413 411/411/411 
f 412/412/412 408/408/408 413/413/413 
f 412/412/412 413/413/413 409/409/409 
f 414/414/414 415/415/415 416/416/416 
f 416/416/416 415/415/415 417/417/417 
f 418/418/418 419/419/419 420/420/420 
f 419/419/419 418/418/418 421/421/421 
f 421/421/421 422/422/422 419/419/419 
f 422/422/422 421/421/421 423/423/423 
f 424/424/424 425/425/425 426/426/426 
f 425/425/425 424/424/424 427/427/427 
f 428/428/428 426/426/426 425/425/425 
f 426/426/426 428/428/428 429/429/429 
f 430/430/430 431/431/431 432/432/432 
f 431/431/431 430/430/430 433/433/433 
f 432/432/432 434/434/434 430/430/430 
f 434/434/434 432/432/432 435/435/435 
f 435/435/435 436/436/436 434/434/434 
f 436/436/436 435/435/435 437/437/437 
f 438/438/438 439/439/439 440/440/440 
f 439/439/439 438/438/438 441/441/441 
f 442/442/442 441/441/441 438/438/438 
f 441/441/441 442/442/442 443/443/443 
f 444/444/444 443/443/443 442/442/442 
f 443/443/443 444/444/444 445/445/445 
f 446/446/446 447/447/447 448/448/448 
f 449/449/449 447/447/447 446/446/446 
f 447/447/447 449/449/449 450/450/450 
f 449/449/449 451/451/451 450/450/450 
f 451/451/451 449/449/449 452/452/452 
f 451/451/451 452/452/452 453/453/453 
f 454/454/454 455/455/455 456/456/456 
f 455/455/455 454/454/454 457/457/457 
f 458/458/458 456/456/456 455/455/455 
f 454/454/454 459/459/459 457/457/457 
f 456/456/456 458/458/458 460/460/460 
f 459/459/459 454/454/454 461/461/461 
f 458/458/458 462/462/462 460/460/460 
f 463/463/463 459/459/459 461/461/461 
f 458/458/458 464/464/464 462/462/462 
f 463/463/463 461/461/461 465/465/465 
f 462/462/462 464/464/464 466/466/466 
f 467/467/467 463/463/463 465/465/465 
f 464/464/464 468/468/468 466/466/466 
f 463/463/463 467/467/467 469/469/469 
f 469/469/469 466/466/466 468/468/468 
f 466/466/466 469/469/469 467/467/467 
f 470/470/470 471/471/471 472/472/472 
f 471/471/471 470/470/470 473/473/473 
f 473/473/473 474/474/474 471/471/471 
f 473/473/473 475/475/475 474/474/474 
f 475/475/475 473/473/473 476/476/476 
f 477/477/477 475/475/475 476/476/476 
f 478/478/478 477/477/477 476/476/476 
f 477/477/477 478/478/478 479/479/479 
f 480/480/480 481/481/481 482/482/482 
f 481/481/481 480/480/480 483/483/483 
f 484/484/484 485/485/485 486/486/486 
f 485/485/485 484/484/484 487/487/487 
f 488/488/488 486/486/486 485/485/485 
f 489/489/489 486/486/486 488/488/488 
f 486/486/486 489/489/489 490/490/490 
f 489/489/489 491/491/491 490/490/490 
f 491/491/491 492/492/492 490/490/490 
f 492/492/492 491/491/491 493/493/493 
f 494/494/494 495/495/495 496/496/496 
f 495/495/495 494/494/494 497/497/497 
f 498/498/498 499/499/499 500/500/500 
f 499/499/499 501/501/501 500/500/500 
f 502/502/502 503/503/503 504/504/504 
f 503/503/503 502/502/502 505/505/505 
f 505/505/505 506/506/506 503/503/503 
f 505/505/505 507/507/507 506/506/506 
f 507/507/507 505/505/505 508/508/508 
f 509/509/509 507/507/507 508/508/508 
f 510/510/510 509/509/509 508/508/508 
f 509/509/509 510/510/510 511/511/511 
f 512/512/512 513/513/513 514/514/514 
f 512/512/512 514/514/514 515/515/515 
f 516/516/516 517/517/517 518/518/518 
f 517/517/517 516/516/516 519/519/519 
f 520/520/520 518/518/518 517/517/517 
f 521/521/521 518/518/518 520/520/520 
f 518/518/518 521/521/521 522/522/522 
f 521/521/521 523/523/523 522/522/522 
f 523/523/523 524/524/524 522/522/522 
f 524/524/524 523/523/523 525/525/525 
f 526/526/526 527/527/527 528/528/528 
f 527/527/527 526/526/526 529/529/529 
f 529/529/529 530/530/530 527/527/527 
f 529/529/529 531/531/531 530/530/530 
f 529/529/529 532/532/532 531/531/531 
f 532/532/532 529/529/529 533/533/533 
f 533/533/533 529/529/529 534/534/534 
f 533/533/533 534/534/534 535/535/535 
f 536/536/536 537/537/537 538/538/538 
f 539/539/539 537/537/537 536/536/536 
f 540/540/540 539/539/539 536/536/536 
f 541/541/541 539/539/539 540/540/540 
f 542/542/542 539/539/539 541/541/541 
f 539/539/539 542/542/542 543/543/543 
f 539/539/539 543/543/543 544/544/544 
f 544/544/544 543/543/543 545/545/545 
f 546/546/546 547/547/547 548/548/548 
f 549/549/549 547/547/547 546/546/546 
f 550/550/550 551/551/551 552/552/552 
f 551/551/551 550/550/550 553/553/553 
f 554/554/554 555/555/555 556/556/556 
f 555/555/555 554/554/554 557/557/557 
f 558/558/558 559/559/559 560/560/560 
f 559/559/559 558/558/558 561/561/561 
f 562/562/562 563/563/563 564/564/564 
f 563/563/563 562/562/562 565/565/565 
f 566/566/566 562/562/562 564/564/564 
f 567/567/567 562/562/562 566/566/566 
f 568/568/568 569/569/569 570/570/570 
f 569/569/569 568/568/568 571/571/571 
f 569/569/569 572/572/572 570/570/570 
f 572/572/572 569/569/569 573/573/573 
f 574/574/574 575/575/575 576/576/576 
f 575/575/575 574/574/574 577/577/577 
f 577/577/577 578/578/578 575/575/575 
f 579/579/579 575/575/575 578/578/578 
f 576/576/576 580/580/580 574/574/574 
f 581/581/581 580/580/580 576/576/576 
f 581/581/581 582/582/582 580/580/580 
f 582/582/582 581/581/581 583/583/583 
f 584/584/584 585/585/585 586/586/586 
f 587/587/587 586/586/586 585/585/585 
f 587/587/587 585/585/585 588/588/588 
f 585/585/585 584/584/584 589/589/589 
f 590/590/590 589/589/589 584/584/584 
f 589/589/589 590/590/590 591/591/591 
f 592/592/592 591/591/591 590/590/590 
f 591/591/591 592/592/592 593/593/593 
f 594/594/594 595/595/595 596/596/596 
f 595/595/595 594/594/594 597/597/597 
f 595/595/595 598/598/598 596/596/596 
f 598/598/598 595/595/595 599/599/599 
f 600/600/600 601/601/601 602/602/602 
f 601/601/601 600/600/600 603/603/603 
f 604/604/604 601/601/601 603/603/603 
f 601/601/601 604/604/604 605/605/605 
f 606/606/606 607/607/607 608/608/608 
f 607/607/607 609/609/609 608/608/608 
f 610/610/610 611/611/611 612/612/612 
f 610/610/610 612/612/612 613/613/613 
f 614/614/614 615/615/615 616/616/616 
f 614/614/614 616/616/616 617/617/617 
f 615/615/615 618/618/618 616/616/616 
f 619/619/619 618/618/618 615/615/615 
f 619/619/619 620/620/620 618/618/618 
f 619/619/619 621/621/621 620/620/620 
f 622/622/622 623/623/623 624/624/624 
f 623/623/623 622/622/622 625/625/625 
f 626/626/626 625/625/625 622/622/622 
f 625/625/625 626/626/626 627/627/627 
f 628/628/628 627/627/627 626/626/626 
f 627/627/627 628/628/628 629/629/629 
f 630/630/630 631/631/631 632/632/632 
f 632/632/632 631/631/631 633/633/633 
f 634/634/634 630/630/630 632/632/632 
f 635/635/635 630/630/630 634/634/634 
f 636/636/636 637/637/637 638/638/638 
f 636/636/636 638/638/638 639/639/639 
f 637/637/637 640/640/640 638/638/638 
f 637/637/637 641/641/641 640/640/640 
f 642/642/642 643/643/643 644/644/644 
f 645/645/645 643/643/643 642/642/642 
f 646/646/646 645/645/645 642/642/642 
f 644/644/644 646/646/646 642/642/642 
f 643/643/643 645/645/645 647/647/647 
f 645/645/645 646/646/646 648/648/648 
f 649/649/649 643/643/643 647/647/647 
f 649/649/649 647/647/647 650/650/650 
f 651/651/651 649/649/649 650/650/650 
f 649/649/649 651/651/651 652/652/652 
f 653/653/653 652/652/652 651/651/651 
f 654/654/654 643/643/643 649/649/649 
f 652/652/652 654/654/654 649/649/649 
f 652/652/652 653/653/653 655/655/655 
f 643/643/643 654/654/654 656/656/656 
f 656/656/656 644/644/644 643/643/643 
f 657/657/657 656/656/656 654/654/654 
f 656/656/656 657/657/657 658/658/658 
f 659/659/659 656/656/656 658/658/658 
f 656/656/656 659/659/659 644/644/644 
f 660/660/660 657/657/657 654/654/654 
f 660/660/660 654/654/654 652/652/652 
f 657/657/657 660/660/660 661/661/661 
f 660/660/660 662/662/662 661/661/661 
f 659/659/659 663/663/663 644/644/644 
f 659/659/659 664/664/664 663/663/663 
f 646/646/646 644/644/644 663/663/663 
f 665/665/665 663/663/663 664/664/664 
f 663/663/663 665/665/665 646/646/646 
f 666/666/666 665/665/665 664/664/664 
f 667/667/667 665/665/665 666/666/666 
f 662/662/662 660/660/660 668/668/668 
f 652/652/652 668/668/668 660/660/660 
f 662/662/662 669/669/669 667/667/667 
f 665/665/665 667/667/667 669/669/669 
f 669/669/669 662/662/662 668/668/668 
f 668/668/668 652/652/652 655/655/655 
f 668/668/668 670/670/670 669/669/669 
f 670/670/670 668/668/668 655/655/655 
f 670/670/670 665/665/665 669/669/669 
f 670/670/670 655/655/655 653/653/653 
f 653/653/653 671/671/671 670/670/670 
f 665/665/665 670/670/670 672/672/672 
f 672/672/672 670/670/670 671/671/671 
f 646/646/646 665/665/665 672/672/672 
f 672/672/672 671/671/671 673/673/673 
f 672/672/672 648/648/648 646/646/646 
f 648/648/648 672/672/672 673/673/673 
f 674/674/674 675/675/675 676/676/676 
f 675/675/675 674/674/674 677/677/677 
f 678/678/678 676/676/676 675/675/675 
f 676/676/676 678/678/678 679/679/679 
f 676/676/676 679/679/679 680/680/680 
f 681/681/681 680/680/680 679/679/679 
f 680/680/680 681/681/681 682/682/682 
f 682/682/682 681/681/681 683/683/683 
f 684/684/684 685/685/685 686/686/686 
f 687/687/687 685/685/685 684/684/684 
f 685/685/685 687/687/687 688/688/688 
f 689/689/689 684/684/684 686/686/686 
f 690/690/690 689/689/689 686/686/686 
f 689/689/689 690/690/690 691/691/691 
f 691/691/691 692/692/692 689/689/689 
f 692/692/692 691/691/691 693/693/693 
f 694/694/694 695/695/695 696/696/696 
f 695/695/695 694/694/694 697/697/697 
f 698/698/698 696/696/696 695/695/695 
f 696/696/696 698/698/698 699/699/699 
f 696/696/696 699/699/699 700/700/700 
f 701/701/701 700/700/700 699/699/699 
f 700/700/700 701/701/701 702/702/702 
f 702/702/702 701/701/701 703/703/703 
f 704/704/704 705/705/705 706/706/706 
f 705/705/705 704/704/704 707/707/707 
f 705/705/705 707/707/707 708/708/708 
f 709/709/709 704/704/704 706/706/706 
f 710/710/710 709/709/709 706/706/706 
f 709/709/709 710/710/710 711/711/711 
f 711/711/711 712/712/712 709/709/709 
f 712/712/712 711/711/711 713/713/713 
f 714/714/714 715/715/715 716/716/716 
f 714/714/714 716/716/716 717/717/717 
f 718/718/718 719/719/719 720/720/720 
f 719/719/719 718/718/718 721/721/721 
f 722/722/722 723/723/723 724/724/724 
f 723/723/723 722/722/722 725/725/725 
f 726/726/726 727/727/727 728/728/728 
f 726/726/726 728/728/728 729/729/729 
f 730/730/730 731/731/731 732/732/732 
f 733/733/733 732/732/732 731/731/731 
f 734/734/734 735/735/735 736/736/736 
f 734/734/734 736/736/736 737/737/737 
f 738/738/738 739/739/739 740/740/740 
f 739/739/739 741/741/741 740/740/740 
f 742/742/742 743/743/743 744/744/744 
f 743/743/743 742/742/742 745/745/745 
f 746/746/746 744/744/744 743/743/743 
f 742/742/742 747/747/747 745/745/745 
f 744/744/744 746/746/746 748/748/748 
f 742/742/742 749/749/749 747/747/747 
f 750/750/750 748/748/748 746/746/746 
f 751/751/751 747/747/747 749/749/749 
f 750/750/750 746/746/746 752/752/752 
f 751/751/751 749/749/749 753/753/753 
f 752/752/752 754/754/754 750/750/750 
f 755/755/755 751/751/751 753/753/753 
f 752/752/752 756/756/756 754/754/754 
f 751/751/751 755/755/755 757/757/757 
f 757/757/757 754/754/754 756/756/756 
f 754/754/754 757/757/757 755/755/755 
f 758/758/758 759/759/759 760/760/760 
f 759/759/759 758/758/758 761/761/761 
f 761/761/761 762/762/762 759/759/759 
f 763/763/763 759/759/759 762/762/762 
f 760/760/760 764/764/764 758/758/758 
f 765/765/765 764/764/764 760/760/760 
f 765/765/765 766/766/766 764/764/764 
f 765/765/765 767/767/767 766/766/766 
f 768/768/768 769/769/769 770/770/770 
f 771/771/771 770/770/770 769/769/769 
f 771/771/771 769/769/769 772/772/772 
f 769/769/769 768/768/768 773/773/773 
f 774/774/774 773/773/773 768/768/768 
f 773/773/773 774/774/774 775/775/775 
f 776/776/776 775/775/775 774/774/774 
f 775/775/775 776/776/776 777/777/777 
f 778/778/778 779/779/779 780/780/780 
f 780/780/780 779/779/779 781/781/781 
f 782/782/782 783/783/783 784/784/784 
f 783/783/783 785/785/785 784/784/784 

g Part4

v 0.783801 0.138939 -0.0363419 
v 0.783801 0.119029 -0.0280939 
v 0.783801 0.11208 -0.0350429 
v 0.783801 0.110781 -0.00818387 
v 0.783801 0.138939 -0.0461689 
v 0.783801 0.100954 -0.00818387 
v 0.783801 0.165799 -0.0350429 
v 0.783801 0.11208 0.0186751 
v 0.783801 0.15885 -0.0280939 
v 0.783801 0.119029 0.0117261 
v 0.783801 0.176924 -0.00818387 
v 0.783801 0.138939 0.0199741 
v 0.783801 0.167097 -0.00818387 
v 0.783801 0.138939 0.0298011 
v 0.783801 0.15885 0.0117261 
v 0.783801 0.165799 0.0186751 
v 0.783801 0.110781 -0.00818387 
v 0.752804 0.125297 0.00545813 
v 0.783801 0.119029 0.0117261 
v 0.783801 0.138939 0.0199741 
v 0.752804 0.138939 0.0111091 
v 0.752804 0.152581 0.00545813 
v 0.783801 0.15885 0.0117261 
v 0.752804 0.119647 -0.00818387 
v 0.783801 0.167097 -0.00818387 
v 0.752804 0.125297 -0.0218259 
v 0.783801 0.119029 -0.0280939 
v 0.783801 0.138939 -0.0363419 
v 0.752804 0.158232 -0.00818387 
v 0.752804 0.138939 -0.0274769 
v 0.752804 0.152581 -0.0218259 
v 0.783801 0.15885 -0.0280939 
v -0.442515 0.182746 0.0483041 
v -0.467682 0.15758 0.0483041 
v -0.449886 0.164951 0.0483041 
v -0.492848 0.182746 0.0483041 
v -0.485477 0.164951 0.0483041 
v -0.467682 0.207913 0.0483041 
v -0.449886 0.200542 0.0483041 
v -0.485477 0.200542 0.0483041 
v -0.442515 0.182746 -0.0613699 
v -0.492848 0.182746 -0.0613699 
v -0.467681 0.207913 -0.0613699 
v -0.485477 0.200542 -0.0613699 
v -0.449886 0.200542 -0.0613699 
v -0.467681 0.15758 -0.0613699 
v -0.449886 0.164951 -0.0613699 
v -0.485477 0.164951 -0.0613699 
v 0.687831 0.11208 0.0186751 
v 0.783801 0.11208 0.0186751 
v 0.783801 0.138939 0.0298011 
v 0.687831 0.100954 -0.00818387 
v 0.687831 0.138939 0.0298011 
v 0.783801 0.100954 -0.00818387 
v 0.783801 0.165799 0.0186751 
v 0.687831 0.11208 -0.0350429 
v 0.687831 0.165799 0.0186751 
v 0.783801 0.11208 -0.0350429 
v 0.783801 0.176924 -0.00818387 
v 0.687831 0.138939 -0.0461689 
v 0.687831 0.176924 -0.00818387 
v 0.783801 0.138939 -0.0461689 
v 0.783801 0.165799 -0.0350429 
v 0.687831 0.165799 -0.0350429 
v -0.485477 0.164951 -0.0613699 
v -0.467682 0.15758 0.0483041 
v -0.485477 0.164951 0.0483041 
v -0.492848 0.182746 0.0483041 
v -0.467681 0.15758 -0.0613699 
v -0.492848 0.182746 -0.0613699 
v -0.449886 0.164951 0.0483041 
v -0.485477 0.200542 0.0483041 
v -0.449886 0.164951 -0.0613699 
v -0.485477 0.200542 -0.0613699 
v -0.442515 0.182746 -0.0613699 
v -0.467682 0.207913 0.0483041 
v -0.442515 0.182746 0.0483041 
v -0.467681 0.207913 -0.0613699 
v -0.449886 0.200542 -0.0613699 
v -0.449886 0.200542 0.0483041 

vn 1 0 0 
vn 1 0 0 
vn 1 0 0 
vn 1 0 0 
vn 1 0 0 
vn 1 0 0 
vn 1 0 0 
vn 1 0 0 
vn 1 0 0 
vn 1 0 0 
vn 1 0 0 
vn 1 0 0 
vn 1 0 0 
vn 1 0 0 
vn 1 0 0 
vn 1 0 0 
vn 0.275591 0.96063 0 
vn 0.732283 0.480315 -0.480315 
vn 0.275591 0.677165 -0.677165 
vn 0.275591 0 -0.96063 
vn 0.732283 0 -0.685039 
vn 0.732283 -0.480315 -0.480315 
vn 0.275591 -0.677165 -0.677165 
vn 0.732283 0.685039 0 
vn 0.275591 -0.96063 0 
vn 0.732283 0.480315 0.480315 
vn 0.275591 0.677165 0.677165 
vn 0.275591 0 0.96063 
vn 0.732283 -0.685039 0 
vn 0.732283 0 0.685039 
vn 0.732283 -0.480315 0.480315 
vn 0.275591 -0.677165 0.677165 
vn 0 0 1 
vn 0 0 1 
vn 0 0 1 
vn 0 0 1 
vn 0 0 1 
vn 0 0 1 
vn 0 0 1 
vn 0 0 1 
vn 0 0 -1 
vn 0 0 -1 
vn 0 0 -1 
vn 0 0 -1 
vn 0 0 -1 
vn 0 0 -1 
vn 0 0 -1 
vn 0 0 -1 
vn 0 -0.708661 0.708661 
vn 0 -0.708661 0.708661 
vn 0 0 1 
vn 0 -1 0 
vn 0 0 1 
vn 0 -1 0 
vn 0 0.708661 0.708661 
vn 0 -0.708661 -0.708661 
vn 0 0.708661 0.708661 
vn 0 -0.708661 -0.708661 
vn 0 1 0 
vn 0 0 -1 
vn 0 1 0 
vn 0 0 -1 
vn 0 0.708661 -0.708661 
vn 0 0.708661 -0.708661 
vn -0.708661 -0.708661 0 
vn 0 -1 0 
vn -0.708661 -0.708661 0 
vn -1 0 0 
vn 0 -1 0 
vn -1 0 0 
vn 0.708661 -0.708661 0 
vn -0.708661 0.708661 0 
vn 0.708661 -0.708661 0 
vn -0.708661 0.708661 0 
vn 1 0 0 
vn 0 1 0 
vn 1 0 0 
vn 0 1 0 
vn 0.708661 0.708661 0 
vn 0.708661 0.708661 0 

vt 0 0 
vt 0 0 
vt 0 0 
vt 0 0 
vt 0 0 
vt 0 0 
vt 0 0 
vt 0 0 
vt 0 0 
vt 0 0 
vt 0 0 
vt 0 0 
vt 0 0 
vt 0 0 
vt 0 0 
vt 0 0 
vt 0 0 
vt 0 0 
vt 0 0 
vt 0 0 
vt 0 0 
vt 0 0 
vt 0 0 
vt 0 0 
vt 0 0 
vt 0 0 
vt 0 0 
vt 0 0 
vt 0 0 
vt 0 0 
vt 0 0 
vt 0 0 
vt 0 0 
vt 0 0 
vt 0 0 
vt 0 0 
vt 0 0 
vt 0 0 
vt 0 0 
vt 0 0 
vt 0 0 
vt 0 0 
vt 0 0 
vt 0 0 
vt 0 0 
vt 0 0 
vt 0 0 
vt 0 0 
vt 0 0 
vt 0 0 
vt 0 0 
vt 0 0 
vt 0 0 
vt 0 0 
vt 0 0 
vt 0 0 
vt 0 0 
vt 0 0 
vt 0 0 
vt 0 0 
vt 0 0 
vt 0 0 
vt 0 0 
vt 0 0 
vt 0 0 
vt 0 0 
vt 0 0 
vt 0 0 
vt 0 0 
vt 0 0 
vt 0 0 
vt 0 0 
vt 0 0 
vt 0 0 
vt 0 0 
vt 0 0 
vt 0 0 
vt 0 0 
vt 0 0 
vt 0 0 

usemtl Part1Mtl

f 786/786/786 787/787/787 788/788/788 
f 789/789/789 788/788/788 787/787/787 
f 788/788/788 790/790/790 786/786/786 
f 788/788/788 789/789/789 791/791/791 
f 792/792/792 786/786/786 790/790/790 
f 789/789/789 793/793/793 791/791/791 
f 786/786/786 792/792/792 794/794/794 
f 793/793/793 789/789/789 795/795/795 
f 796/796/796 794/794/794 792/792/792 
f 797/797/797 793/793/793 795/795/795 
f 794/794/794 796/796/796 798/798/798 
f 793/793/793 797/797/797 799/799/799 
f 796/796/796 800/800/800 798/798/798 
f 797/797/797 801/801/801 799/799/799 
f 796/796/796 801/801/801 800/800/800 
f 801/801/801 797/797/797 800/800/800 
f 802/802/802 803/803/803 804/804/804 
f 804/804/804 803/803/803 805/805/805 
f 806/806/806 805/805/805 803/803/803 
f 807/807/807 805/805/805 806/806/806 
f 803/803/803 807/807/807 806/806/806 
f 805/805/805 807/807/807 808/808/808 
f 803/803/803 802/802/802 809/809/809 
f 807/807/807 803/803/803 809/809/809 
f 808/808/808 807/807/807 810/810/810 
f 802/802/802 811/811/811 809/809/809 
f 811/811/811 802/802/802 812/812/812 
f 813/813/813 811/811/811 812/812/812 
f 814/814/814 810/810/810 807/807/807 
f 811/811/811 813/813/813 815/815/815 
f 816/816/816 810/810/810 814/814/814 
f 807/807/807 816/816/816 814/814/814 
f 816/816/816 807/807/807 809/809/809 
f 816/816/816 809/809/809 811/811/811 
f 816/816/816 811/811/811 815/815/815 
f 815/815/815 813/813/813 816/816/816 
f 810/810/810 816/816/816 817/817/817 
f 817/817/817 816/816/816 813/813/813 
f 818/818/818 819/819/819 820/820/820 
f 818/818/818 821/821/821 819/819/819 
f 819/819/819 821/821/821 822/822/822 
f 821/821/821 818/818/818 823/823/823 
f 823/823/823 818/818/818 824/824/824 
f 821/821/821 823/823/823 825/825/825 
f 826/826/826 827/827/827 828/828/828 
f 828/828/828 827/827/827 829/829/829 
f 826/826/826 828/828/828 830/830/830 
f 827/827/827 826/826/826 831/831/831 
f 831/831/831 826/826/826 832/832/832 
f 827/827/827 831/831/831 833/833/833 
f 834/834/834 835/835/835 836/836/836 
f 837/837/837 835/835/835 834/834/834 
f 834/834/834 836/836/836 838/838/838 
f 837/837/837 839/839/839 835/835/835 
f 838/838/838 836/836/836 840/840/840 
f 841/841/841 839/839/839 837/837/837 
f 838/838/838 840/840/840 842/842/842 
f 841/841/841 843/843/843 839/839/839 
f 844/844/844 842/842/842 840/840/840 
f 845/845/845 843/843/843 841/841/841 
f 844/844/844 846/846/846 842/842/842 
f 845/845/845 847/847/847 843/843/843 
f 848/848/848 846/846/846 844/844/844 
f 849/849/849 847/847/847 845/845/845 
f 848/848/848 849/849/849 846/846/846 
f 849/849/849 848/848/848 847/847/847 
f 850/850/850 851/851/851 852/852/852 
f 853/853/853 850/850/850 852/852/852 
f 851/851/851 850/850/850 854/854/854 
f 850/850/850 853/853/853 855/855/855 
f 854/854/854 856/856/856 851/851/851 
f 857/857/857 855/855/855 853/853/853 
f 856/856/856 854/854/854 858/858/858 
f 855/855/855 857/857/857 859/859/859 
f 860/860/860 856/856/856 858/858/858 
f 861/861/861 859/859/859 857/857/857 
f 856/856/856 860/860/860 862/862/862 
f 859/859/859 861/861/861 863/863/863 
f 864/864/864 862/862/862 860/860/860 
f 865/865/865 863/863/863 861/861/861 
f 862/862/862 864/864/864 865/865/865 
f 863/863/863 865/865/865 864/864/864 

g Part5

v -0.565904 0.258559 -0.050604 
v -0.547939 0.229079 -0.050604 
v -0.57051 0.245201 -0.050604 
v -0.562679 0.231382 -0.050604 
v -0.521683 0.256717 -0.050604 
v -0.471474 0.212496 -0.050604 
v -0.48566 0.143401 -0.050604 
v -0.444663 0.142019 -0.050604 
v -0.417946 0.175185 -0.050604 
v -0.422553 0.212496 -0.050604 
v -0.444663 0.142019 0.043474 
v -0.471474 0.212496 0.043474 
v -0.48566 0.143401 0.043474 
v -0.417946 0.175185 0.043474 
v -0.422553 0.212496 0.043474 
v -0.547939 0.229079 0.043474 
v -0.521683 0.256717 0.043474 
v -0.565904 0.258559 0.043474 
v -0.57051 0.245201 0.043474 
v -0.562679 0.231382 0.043474 
v -0.471474 0.212496 -0.050604 
v -0.422553 0.212496 0.043474 
v -0.422553 0.212496 -0.050604 
v -0.417946 0.175185 -0.050604 
v -0.471474 0.212496 0.043474 
v -0.417946 0.175185 0.043474 
v -0.521683 0.256717 0.043474 
v -0.444663 0.142019 -0.050604 
v -0.521683 0.256717 -0.050604 
v -0.444663 0.142019 0.043474 
v -0.565904 0.258559 0.043474 
v -0.48566 0.143401 -0.050604 
v -0.565904 0.258559 -0.050604 
v -0.48566 0.143401 0.043474 
v -0.57051 0.245201 0.043474 
v -0.547939 0.229079 0.043474 
v -0.57051 0.245201 -0.050604 
v -0.547939 0.229079 -0.050604 
v -0.562679 0.231382 0.043474 
v -0.562679 0.231382 -0.050604 

vn 0 0 -1 
vn 0 0 -1 
vn 0 0 -1 
vn 0 0 -1 
vn 0 0 -1 
vn 0 0 -1 
vn 0 0 -1 
vn 0 0 -1 
vn 0 0 -1 
vn 0 0 -1 
vn 0 0 1 
vn 0 0 1 
vn 0 0 1 
vn 0 0 1 
vn 0 0 1 
vn 0 0 1 
vn 0 0 1 
vn 0 0 1 
vn 0 0 1 
vn 0 0 1 
vn 0.354331 0.937008 0 
vn 0.661417 0.748031 0 
vn 0.661417 0.748031 0 
vn 0.96063 -0.275591 0 
vn 0.354331 0.937008 0 
vn 0.96063 -0.275591 0 
vn 0.370079 0.929134 0 
vn 0.417323 -0.905512 0 
vn 0.370079 0.929134 0 
vn 0.417323 -0.905512 0 
vn -0.566929 0.826772 0 
vn -0.472441 -0.88189 0 
vn -0.566929 0.826772 0 
vn -0.472441 -0.88189 0 
vn -0.992126 -0.0944882 0 
vn -0.519685 -0.850394 0 
vn -0.992126 -0.0944882 0 
vn -0.519685 -0.850394 0 
vn -0.566929 -0.818898 0 
vn -0.566929 -0.818898 0 

vt 0 0 
vt 0 0 
vt 0 0 
vt 0 0 
vt 0 0 
vt 0 0 
vt 0 0 
vt 0 0 
vt 0 0 
vt 0 0 
vt 0 0 
vt 0 0 
vt 0 0 
vt 0 0 
vt 0 0 
vt 0 0 
vt 0 0 
vt 0 0 
vt 0 0 
vt 0 0 
vt 0 0 
vt 0 0 
vt 0 0 
vt 0 0 
vt 0 0 
vt 0 0 
vt 0 0 
vt 0 0 
vt 0 0 
vt 0 0 
vt 0 0 
vt 0 0 
vt 0 0 
vt 0 0 
vt 0 0 
vt 0 0 
vt 0 0 
vt 0 0 
vt 0 0 
vt 0 0 

usemtl Part1Mtl

f 866/866/866 867/867/867 868/868/868 
f 868/868/868 867/867/867 869/869/869 
f 870/870/870 867/867/867 866/866/866 
f 867/867/867 870/870/870 871/871/871 
f 871/871/871 872/872/872 867/867/867 
f 872/872/872 871/871/871 873/873/873 
f 873/873/873 871/871/871 874/874/874 
f 875/875/875 874/874/874 871/871/871 
f 876/876/876 877/877/877 878/878/878 
f 879/879/879 877/877/877 876/876/876 
f 877/877/877 879/879/879 880/880/880 
f 877/877/877 881/881/881 878/878/878 
f 877/877/877 882/882/882 881/881/881 
f 883/883/883 881/881/881 882/882/882 
f 884/884/884 881/881/881 883/883/883 
f 881/881/881 884/884/884 885/885/885 
f 886/886/886 887/887/887 888/888/888 
f 888/888/888 887/887/887 889/889/889 
f 887/887/887 886/886/886 890/890/890 
f 889/889/889 887/887/887 891/891/891 
f 886/886/886 892/892/892 890/890/890 
f 889/889/889 891/891/891 893/893/893 
f 894/894/894 892/892/892 886/886/886 
f 893/893/893 891/891/891 895/895/895 
f 894/894/894 896/896/896 892/892/892 
f 893/893/893 895/895/895 897/897/897 
f 898/898/898 896/896/896 894/894/894 
f 897/897/897 895/895/895 899/899/899 
f 898/898/898 900/900/900 896/896/896 
f 897/897/897 899/899/899 901/901/901 
f 902/902/902 900/900/900 898/898/898 
f 903/903/903 897/897/897 901/901/901 
f 902/902/902 904/904/904 900/900/900 
f 903/903/903 901/901/901 905/905/905 
f 905/905/905 904/904/904 902/902/902 
f 905/905/905 901/901/901 904/904/904 

