# This file is brought to you by Roblox Corporation
# Generated by Roblox Studio

mtllib HourGlassMid.mtl

g Part1

v 0.108324 0.234513 -0.108324 
v 0.093055 0.168325 -0.093055 
v 2.48007e-17 0.234513 -0.153194 
v 0.089183 0.27325 -0.089183 
v 0.153194 0.234513 2.48007e-17 
v 1.66949e-17 0.168325 -0.1316 
v 0.126124 0.27325 2.95446e-17 
v 2.95446e-17 0.27325 -0.126124 
v 0.048721 0.299339 3.27395e-17 
v -0.089183 0.27325 -0.089183 
v 3.27395e-17 0.299339 -0.048721 
v 0.034451 0.299339 -0.034451 
v 0.089183 0.27325 0.089183 
v 3.27395e-17 0.299339 0.048721 
v 0.034451 0.299339 0.034451 
v 0.108324 0.234513 0.108324 
v 2.95446e-17 0.27325 0.126124 
v 2.48007e-17 0.234513 0.153194 
v -0.089183 0.27325 0.089183 
v -0.048721 0.299339 3.27395e-17 
v 0.093055 0.168325 0.093055 
v 0.1316 0.168325 1.66949e-17 
v -0.034451 0.299339 -0.034451 
v -0.034451 0.299339 0.034451 
v -0.126124 0.27325 2.95446e-17 
v -0.153194 0.234513 2.48007e-17 
v -0.108324 0.234513 -0.108324 
v -0.108324 0.234513 0.108324 
v -0.093055 0.168325 -0.093055 
v -0.093055 0.168325 0.093055 
v -0.1316 0.168325 1.66949e-17 
v -0.061344 0.109034 -0.061344 
v 1.66949e-17 0.168325 0.1316 
v -0.061344 0.109034 0.061344 
v -0.086753 0.109034 9.43394e-18 
v 0.061344 0.109034 0.061344 
v 9.43394e-18 0.109034 0.086753 
v -0.033421 0.0668715 0.033421 
v -0.033421 0.0668715 -0.033421 
v -0.047265 0.0668715 4.27047e-18 
v 9.43394e-18 0.109034 -0.086753 
v 0.061344 0.109034 -0.061344 
v 0.086753 0.109034 9.43394e-18 
v 0.033421 0.0668715 -0.033421 
v 4.27047e-18 0.0668715 -0.047265 
v -0.022426 0.0383245 -0.022426 
v 0.033421 0.0668715 0.033421 
v 0.047265 0.0668715 4.27047e-18 
v 0.022426 0.0383245 -0.022426 
v 7.74467e-19 0.0383245 -0.031715 
v 4.27047e-18 0.0668715 0.047265 
v 0.022426 0.0383245 0.022426 
v 0.031715 0.0383245 7.74467e-19 
v 0.009905 0.0108785 -0.009905 
v -0.022426 0.0383245 0.022426 
v 7.74467e-19 0.0383245 0.031715 
v 0.009905 0.0108785 0.009905 
v 0.014007 0.0108785 -2.5867e-18 
v -0.031715 0.0383245 7.74467e-19 
v -0.009905 0.0108785 0.009905 
v -2.5867e-18 0.0108785 0.014007 
v 0.004334 -0.0380325 0.004334 
v -0.009905 0.0108785 -0.009905 
v -0.014007 0.0108785 -2.5867e-18 
v -0.004334 -0.0380325 0.004334 
v -8.57657e-18 -0.0380325 0.006129 
v -2.5867e-18 0.0108785 -0.014007 
v -0.004334 -0.0380325 -0.004334 
v -0.006129 -0.0380325 -8.57657e-18 
v -1.2407e-17 -0.0693105 0.014627 
v -0.014627 -0.0693105 -1.2407e-17 
v -0.010343 -0.0693105 0.010343 
v -8.57657e-18 -0.0380325 -0.006129 
v 0.004334 -0.0380325 -0.004334 
v 0.006129 -0.0380325 -8.57657e-18 
v 0.014627 -0.0693105 -1.2407e-17 
v -1.2407e-17 -0.0693105 -0.014627 
v 0.010343 -0.0693105 -0.010343 
v 0.010343 -0.0693105 0.010343 
v 0.029211 -0.10289 -1.65193e-17 
v -0.010343 -0.0693105 -0.010343 
v -1.65193e-17 -0.10289 -0.029211 
v 0.020656 -0.10289 -0.020656 
v -0.029211 -0.10289 -1.65193e-17 
v -0.020656 -0.10289 -0.020656 
v -1.81622e-17 -0.116306 -0.042144 
v 0.042144 -0.116306 -1.81622e-17 
v 0.0298 -0.116306 -0.0298 
v -0.0298 -0.116306 -0.0298 
v -0.042144 -0.116306 -1.81622e-17 
v -0.059659 -0.138346 -0.059659 
v 0.059659 -0.138346 -0.059659 
v -2.08614e-17 -0.138346 -0.084371 
v -0.095042 -0.175719 -0.095042 
v 0.095042 -0.175719 -0.095042 
v -0.084371 -0.138346 -2.08614e-17 
v -2.54384e-17 -0.175719 -0.13441 
v 0.084371 -0.138346 -2.08614e-17 
v 0.112411 -0.199038 -0.112411 
v 0.13441 -0.175719 -2.54384e-17 
v 0.095042 -0.175719 0.095042 
v 0.059659 -0.138346 0.059659 
v 0.0298 -0.116306 0.0298 
v 0.020656 -0.10289 0.020656 
v -1.81622e-17 -0.116306 0.042144 
v -1.65193e-17 -0.10289 0.029211 
v -0.020656 -0.10289 0.020656 
v -0.0298 -0.116306 0.0298 
v -0.059659 -0.138346 0.059659 
v -2.08614e-17 -0.138346 0.084371 
v -0.095042 -0.175719 0.095042 
v -0.13441 -0.175719 -2.54384e-17 
v -2.54384e-17 -0.175719 0.13441 
v -0.112411 -0.199038 0.112411 
v -0.112411 -0.199038 -0.112411 
v -0.158973 -0.199038 -2.8294e-17 
v 0.112411 -0.199038 0.112411 
v -2.8294e-17 -0.199038 0.158973 
v -0.106799 -0.252383 0.106799 
v 0.158973 -0.199038 -2.8294e-17 
v 0.106799 -0.252383 0.106799 
v -3.48269e-17 -0.252383 0.151037 
v -0.151037 -0.252383 -3.48269e-17 
v 0.079914 -0.299339 0.079914 
v 0.151037 -0.252383 -3.48269e-17 
v 0.106799 -0.252383 -0.106799 
v 0.113016 -0.299339 -4.05773e-17 
v 0.079914 -0.299339 -0.079914 
v -4.05773e-17 -0.299339 0.113016 
v -2.8294e-17 -0.199038 -0.158973 
v -0.079914 -0.299339 0.079914 
v -0.106799 -0.252383 -0.106799 
v -0.113016 -0.299339 -4.05773e-17 
v -0.079914 -0.299339 -0.079914 
v -3.48269e-17 -0.252383 -0.151037 
v -4.05773e-17 -0.299339 -0.113016 

vn 0.700787 0.133858 -0.700787 
vn 0.629921 -0.448819 -0.629921 
vn 0 0.133858 -0.992126 
vn 0.456693 0.76378 -0.456693 
vn 0.992126 0.133858 0 
vn 0 -0.448819 -0.897638 
vn 0.645669 0.76378 0 
vn 0 0.76378 -0.645669 
vn 0.19685 0.976378 0 
vn -0.456693 0.76378 -0.456693 
vn 0 0.976378 -0.19685 
vn 0.141732 0.976378 -0.141732 
vn 0.456693 0.76378 0.456693 
vn 0 0.976378 0.19685 
vn 0.141732 0.976378 0.141732 
vn 0.700787 0.133858 0.700787 
vn 0 0.76378 0.645669 
vn 0 0.133858 0.992126 
vn -0.456693 0.76378 0.456693 
vn -0.19685 0.976378 0 
vn 0.629921 -0.448819 0.629921 
vn 0.897638 -0.448819 0 
vn -0.141732 0.976378 -0.141732 
vn -0.141732 0.976378 0.141732 
vn -0.645669 0.76378 0 
vn -0.992126 0.133858 0 
vn -0.700787 0.133858 -0.700787 
vn -0.700787 0.133858 0.700787 
vn -0.629921 -0.448819 -0.629921 
vn -0.629921 -0.448819 0.629921 
vn -0.897638 -0.448819 0 
vn -0.543307 -0.637795 -0.543307 
vn 0 -0.448819 0.897638 
vn -0.543307 -0.637795 0.543307 
vn -0.771654 -0.637795 0 
vn 0.543307 -0.637795 0.543307 
vn 0 -0.637795 0.771654 
vn -0.566929 -0.598425 0.566929 
vn -0.566929 -0.598425 -0.566929 
vn -0.80315 -0.598425 0 
vn 0 -0.637795 -0.771654 
vn 0.543307 -0.637795 -0.543307 
vn 0.771654 -0.637795 0 
vn 0.566929 -0.598425 -0.566929 
vn 0 -0.598425 -0.80315 
vn -0.606299 -0.503937 -0.606299 
vn 0.566929 -0.598425 0.566929 
vn 0.80315 -0.598425 0 
vn 0.606299 -0.503937 -0.606299 
vn 0 -0.503937 -0.866142 
vn 0 -0.598425 0.80315 
vn 0.606299 -0.503937 0.606299 
vn 0.866142 -0.503937 0 
vn 0.653543 -0.377953 -0.653543 
vn -0.606299 -0.503937 0.606299 
vn 0 -0.503937 0.866142 
vn 0.653543 -0.377953 0.653543 
vn 0.929134 -0.377953 0 
vn -0.866142 -0.503937 0 
vn -0.653543 -0.377953 0.653543 
vn 0 -0.377953 0.929134 
vn 0.708661 0.0551181 0.708661 
vn -0.653543 -0.377953 -0.653543 
vn -0.929134 -0.377953 0 
vn -0.708661 0.0551181 0.708661 
vn 0 0.0551181 1 
vn 0 -0.377953 -0.929134 
vn -0.708661 0.0551181 -0.708661 
vn -1 0.0551181 0 
vn 0 0.338583 0.944882 
vn -0.944882 0.338583 0 
vn -0.669291 0.338583 0.669291 
vn 0 0.0551181 -1 
vn 0.708661 0.0551181 -0.708661 
vn 1 0.0551181 0 
vn 0.944882 0.338583 0 
vn 0 0.338583 -0.944882 
vn 0.669291 0.338583 -0.669291 
vn 0.669291 0.338583 0.669291 
vn 0.818898 0.574803 0 
vn -0.669291 0.338583 -0.669291 
vn 0 0.574803 -0.818898 
vn 0.574803 0.574803 -0.574803 
vn -0.818898 0.574803 0 
vn -0.574803 0.574803 -0.574803 
vn 0 0.818898 -0.574803 
vn 0.574803 0.818898 0 
vn 0.401575 0.818898 -0.401575 
vn -0.401575 0.818898 -0.401575 
vn -0.574803 0.818898 0 
vn -0.385827 0.834646 -0.385827 
vn 0.385827 0.834646 -0.385827 
vn 0 0.834646 -0.543307 
vn -0.464567 0.755906 -0.464567 
vn 0.464567 0.755906 -0.464567 
vn -0.543307 0.834646 0 
vn 0 0.755906 -0.653543 
vn 0.543307 0.834646 0 
vn 0.677165 0.299213 -0.677165 
vn 0.653543 0.755906 0 
vn 0.464567 0.755906 0.464567 
vn 0.385827 0.834646 0.385827 
vn 0.401575 0.818898 0.401575 
vn 0.574803 0.574803 0.574803 
vn 0 0.818898 0.574803 
vn 0 0.574803 0.818898 
vn -0.574803 0.574803 0.574803 
vn -0.401575 0.818898 0.401575 
vn -0.385827 0.834646 0.385827 
vn 0 0.834646 0.543307 
vn -0.464567 0.755906 0.464567 
vn -0.653543 0.755906 0 
vn 0 0.755906 0.653543 
vn -0.677165 0.299213 0.677165 
vn -0.677165 0.299213 -0.677165 
vn -0.952756 0.299213 0 
vn 0.677165 0.299213 0.677165 
vn 0 0.299213 0.952756 
vn -0.653543 -0.377953 0.653543 
vn 0.952756 0.299213 0 
vn 0.653543 -0.377953 0.653543 
vn 0 -0.377953 0.92126 
vn -0.92126 -0.377953 0 
vn 0.362205 -0.858268 0.362205 
vn 0.92126 -0.377953 0 
vn 0.653543 -0.377953 -0.653543 
vn 0.511811 -0.858268 0 
vn 0.362205 -0.858268 -0.362205 
vn 0 -0.858268 0.511811 
vn 0 0.299213 -0.952756 
vn -0.362205 -0.858268 0.362205 
vn -0.653543 -0.377953 -0.653543 
vn -0.511811 -0.858268 0 
vn -0.362205 -0.858268 -0.362205 
vn 0 -0.377953 -0.92126 
vn 0 -0.858268 -0.511811 

vt 0 0 
vt 0 0 
vt 0 0 
vt 0 0 
vt 0 0 
vt 0 0 
vt 0 0 
vt 0 0 
vt 0 0 
vt 0 0 
vt 0 0 
vt 0 0 
vt 0 0 
vt 0 0 
vt 0 0 
vt 0 0 
vt 0 0 
vt 0 0 
vt 0 0 
vt 0 0 
vt 0 0 
vt 0 0 
vt 0 0 
vt 0 0 
vt 0 0 
vt 0 0 
vt 0 0 
vt 0 0 
vt 0 0 
vt 0 0 
vt 0 0 
vt 0 0 
vt 0 0 
vt 0 0 
vt 0 0 
vt 0 0 
vt 0 0 
vt 0 0 
vt 0 0 
vt 0 0 
vt 0 0 
vt 0 0 
vt 0 0 
vt 0 0 
vt 0 0 
vt 0 0 
vt 0 0 
vt 0 0 
vt 0 0 
vt 0 0 
vt 0 0 
vt 0 0 
vt 0 0 
vt 0 0 
vt 0 0 
vt 0 0 
vt 0 0 
vt 0 0 
vt 0 0 
vt 0 0 
vt 0 0 
vt 0 0 
vt 0 0 
vt 0 0 
vt 0 0 
vt 0 0 
vt 0 0 
vt 0 0 
vt 0 0 
vt 0 0 
vt 0 0 
vt 0 0 
vt 0 0 
vt 0 0 
vt 0 0 
vt 0 0 
vt 0 0 
vt 0 0 
vt 0 0 
vt 0 0 
vt 0 0 
vt 0 0 
vt 0 0 
vt 0 0 
vt 0 0 
vt 0 0 
vt 0 0 
vt 0 0 
vt 0 0 
vt 0 0 
vt 0 0 
vt 0 0 
vt 0 0 
vt 0 0 
vt 0 0 
vt 0 0 
vt 0 0 
vt 0 0 
vt 0 0 
vt 0 0 
vt 0 0 
vt 0 0 
vt 0 0 
vt 0 0 
vt 0 0 
vt 0 0 
vt 0 0 
vt 0 0 
vt 0 0 
vt 0 0 
vt 0 0 
vt 0 0 
vt 0 0 
vt 0 0 
vt 0 0 
vt 0 0 
vt 0 0 
vt 0 0 
vt 0 0 
vt 0 0 
vt 0 0 
vt 0 0 
vt 0 0 
vt 0 0 
vt 0 0 
vt 0 0 
vt 0 0 
vt 0 0 
vt 0 0 
vt 0 0 
vt 0 0 
vt 0 0 
vt 0 0 
vt 0 0 
vt 0 0 
vt 0 0 

usemtl Part1Mtl

f 1/1/1 2/2/2 3/3/3 
f 3/3/3 4/4/4 1/1/1 
f 5/5/5 2/2/2 1/1/1 
f 4/4/4 5/5/5 1/1/1 
f 3/3/3 2/2/2 6/6/6 
f 5/5/5 4/4/4 7/7/7 
f 4/4/4 3/3/3 8/8/8 
f 4/4/4 9/9/9 7/7/7 
f 3/3/3 10/10/10 8/8/8 
f 11/11/11 4/4/4 8/8/8 
f 8/8/8 10/10/10 11/11/11 
f 4/4/4 11/11/11 12/12/12 
f 9/9/9 4/4/4 12/12/12 
f 11/11/11 9/9/9 12/12/12 
f 9/9/9 13/13/13 7/7/7 
f 13/13/13 5/5/5 7/7/7 
f 14/14/14 9/9/9 11/11/11 
f 13/13/13 9/9/9 15/15/15 
f 9/9/9 14/14/14 15/15/15 
f 14/14/14 13/13/13 15/15/15 
f 16/16/16 5/5/5 13/13/13 
f 13/13/13 14/14/14 17/17/17 
f 13/13/13 18/18/18 16/16/16 
f 18/18/18 13/13/13 17/17/17 
f 14/14/14 19/19/19 17/17/17 
f 17/17/17 19/19/19 18/18/18 
f 14/14/14 11/11/11 20/20/20 
f 5/5/5 16/16/16 21/21/21 
f 18/18/18 21/21/21 16/16/16 
f 22/22/22 5/5/5 21/21/21 
f 2/2/2 5/5/5 22/22/22 
f 20/20/20 11/11/11 23/23/23 
f 11/11/11 10/10/10 23/23/23 
f 10/10/10 20/20/20 23/23/23 
f 14/14/14 20/20/20 24/24/24 
f 19/19/19 14/14/14 24/24/24 
f 19/19/19 24/24/24 20/20/20 
f 20/20/20 10/10/10 25/25/25 
f 25/25/25 19/19/19 20/20/20 
f 10/10/10 26/26/26 25/25/25 
f 26/26/26 19/19/19 25/25/25 
f 27/27/27 26/26/26 10/10/10 
f 10/10/10 3/3/3 27/27/27 
f 19/19/19 26/26/26 28/28/28 
f 28/28/28 18/18/18 19/19/19 
f 3/3/3 29/29/29 27/27/27 
f 29/29/29 26/26/26 27/27/27 
f 29/29/29 3/3/3 6/6/6 
f 26/26/26 30/30/30 28/28/28 
f 18/18/18 28/28/28 30/30/30 
f 26/26/26 29/29/29 31/31/31 
f 30/30/30 26/26/26 31/31/31 
f 29/29/29 6/6/6 32/32/32 
f 32/32/32 31/31/31 29/29/29 
f 30/30/30 33/33/33 18/18/18 
f 21/21/21 18/18/18 33/33/33 
f 30/30/30 31/31/31 34/34/34 
f 34/34/34 33/33/33 30/30/30 
f 31/31/31 32/32/32 35/35/35 
f 35/35/35 34/34/34 31/31/31 
f 33/33/33 36/36/36 21/21/21 
f 36/36/36 22/22/22 21/21/21 
f 33/33/33 34/34/34 37/37/37 
f 36/36/36 33/33/33 37/37/37 
f 34/34/34 35/35/35 38/38/38 
f 38/38/38 37/37/37 34/34/34 
f 39/39/39 35/35/35 32/32/32 
f 40/40/40 38/38/38 35/35/35 
f 35/35/35 39/39/39 40/40/40 
f 32/32/32 41/41/41 39/39/39 
f 6/6/6 41/41/41 32/32/32 
f 6/6/6 42/42/42 41/41/41 
f 42/42/42 6/6/6 2/2/2 
f 42/42/42 2/2/2 22/22/22 
f 42/42/42 22/22/22 43/43/43 
f 22/22/22 36/36/36 43/43/43 
f 44/44/44 41/41/41 42/42/42 
f 44/44/44 42/42/42 43/43/43 
f 41/41/41 45/45/45 39/39/39 
f 41/41/41 44/44/44 45/45/45 
f 39/39/39 45/45/45 46/46/46 
f 46/46/46 40/40/40 39/39/39 
f 47/47/47 43/43/43 36/36/36 
f 37/37/37 47/47/47 36/36/36 
f 44/44/44 43/43/43 48/48/48 
f 43/43/43 47/47/47 48/48/48 
f 49/49/49 45/45/45 44/44/44 
f 49/49/49 44/44/44 48/48/48 
f 45/45/45 50/50/50 46/46/46 
f 45/45/45 49/49/49 50/50/50 
f 47/47/47 37/37/37 51/51/51 
f 37/37/37 38/38/38 51/51/51 
f 52/52/52 48/48/48 47/47/47 
f 51/51/51 52/52/52 47/47/47 
f 49/49/49 48/48/48 53/53/53 
f 48/48/48 52/52/52 53/53/53 
f 54/54/54 50/50/50 49/49/49 
f 54/54/54 49/49/49 53/53/53 
f 55/55/55 51/51/51 38/38/38 
f 40/40/40 55/55/55 38/38/38 
f 52/52/52 51/51/51 56/56/56 
f 51/51/51 55/55/55 56/56/56 
f 57/57/57 53/53/53 52/52/52 
f 56/56/56 57/57/57 52/52/52 
f 54/54/54 53/53/53 58/58/58 
f 53/53/53 57/57/57 58/58/58 
f 59/59/59 55/55/55 40/40/40 
f 40/40/40 46/46/46 59/59/59 
f 60/60/60 56/56/56 55/55/55 
f 59/59/59 60/60/60 55/55/55 
f 57/57/57 56/56/56 61/61/61 
f 56/56/56 60/60/60 61/61/61 
f 62/62/62 58/58/58 57/57/57 
f 61/61/61 62/62/62 57/57/57 
f 63/63/63 59/59/59 46/46/46 
f 63/63/63 46/46/46 50/50/50 
f 59/59/59 64/64/64 60/60/60 
f 59/59/59 63/63/63 64/64/64 
f 65/65/65 61/61/61 60/60/60 
f 64/64/64 65/65/65 60/60/60 
f 62/62/62 61/61/61 66/66/66 
f 61/61/61 65/65/65 66/66/66 
f 50/50/50 67/67/67 63/63/63 
f 50/50/50 54/54/54 67/67/67 
f 68/68/68 64/64/64 63/63/63 
f 68/68/68 63/63/63 67/67/67 
f 65/65/65 64/64/64 69/69/69 
f 64/64/64 68/68/68 69/69/69 
f 65/65/65 70/70/70 66/66/66 
f 70/70/70 62/62/62 66/66/66 
f 71/71/71 65/65/65 69/69/69 
f 68/68/68 71/71/71 69/69/69 
f 70/70/70 65/65/65 72/72/72 
f 65/65/65 71/71/71 72/72/72 
f 67/67/67 73/73/73 68/68/68 
f 74/74/74 67/67/67 54/54/54 
f 67/67/67 74/74/74 73/73/73 
f 74/74/74 54/54/54 58/58/58 
f 58/58/58 62/62/62 75/75/75 
f 74/74/74 58/58/58 75/75/75 
f 76/76/76 75/75/75 62/62/62 
f 76/76/76 74/74/74 75/75/75 
f 77/77/77 68/68/68 73/73/73 
f 77/77/77 73/73/73 74/74/74 
f 74/74/74 76/76/76 78/78/78 
f 74/74/74 78/78/78 77/77/77 
f 76/76/76 62/62/62 79/79/79 
f 62/62/62 70/70/70 79/79/79 
f 80/80/80 78/78/78 76/76/76 
f 80/80/80 76/76/76 79/79/79 
f 68/68/68 77/77/77 81/81/81 
f 68/68/68 81/81/81 71/71/71 
f 82/82/82 77/77/77 78/78/78 
f 82/82/82 81/81/81 77/77/77 
f 78/78/78 80/80/80 83/83/83 
f 78/78/78 83/83/83 82/82/82 
f 81/81/81 84/84/84 71/71/71 
f 84/84/84 72/72/72 71/71/71 
f 81/81/81 82/82/82 85/85/85 
f 81/81/81 85/85/85 84/84/84 
f 82/82/82 83/83/83 86/86/86 
f 86/86/86 85/85/85 82/82/82 
f 87/87/87 83/83/83 80/80/80 
f 83/83/83 88/88/88 86/86/86 
f 83/83/83 87/87/87 88/88/88 
f 85/85/85 86/86/86 89/89/89 
f 85/85/85 90/90/90 84/84/84 
f 89/89/89 90/90/90 85/85/85 
f 91/91/91 89/89/89 86/86/86 
f 91/91/91 90/90/90 89/89/89 
f 92/92/92 86/86/86 88/88/88 
f 87/87/87 92/92/92 88/88/88 
f 91/91/91 86/86/86 93/93/93 
f 86/86/86 92/92/92 93/93/93 
f 93/93/93 94/94/94 91/91/91 
f 95/95/95 93/93/93 92/92/92 
f 94/94/94 96/96/96 91/91/91 
f 90/90/90 91/91/91 96/96/96 
f 94/94/94 93/93/93 97/97/97 
f 93/93/93 95/95/95 97/97/97 
f 98/98/98 95/95/95 92/92/92 
f 87/87/87 98/98/98 92/92/92 
f 99/99/99 97/97/97 95/95/95 
f 98/98/98 100/100/100 95/95/95 
f 100/100/100 99/99/99 95/95/95 
f 98/98/98 101/101/101 100/100/100 
f 87/87/87 102/102/102 98/98/98 
f 101/101/101 98/98/98 102/102/102 
f 102/102/102 87/87/87 103/103/103 
f 87/87/87 104/104/104 103/103/103 
f 87/87/87 80/80/80 104/104/104 
f 80/80/80 79/79/79 104/104/104 
f 104/104/104 105/105/105 103/103/103 
f 105/105/105 102/102/102 103/103/103 
f 79/79/79 106/106/106 104/104/104 
f 105/105/105 104/104/104 106/106/106 
f 106/106/106 79/79/79 70/70/70 
f 72/72/72 106/106/106 70/70/70 
f 106/106/106 72/72/72 107/107/107 
f 107/107/107 105/105/105 106/106/106 
f 72/72/72 84/84/84 107/107/107 
f 90/90/90 107/107/107 84/84/84 
f 108/108/108 105/105/105 107/107/107 
f 107/107/107 90/90/90 108/108/108 
f 90/90/90 109/109/109 108/108/108 
f 109/109/109 105/105/105 108/108/108 
f 96/96/96 109/109/109 90/90/90 
f 110/110/110 102/102/102 105/105/105 
f 105/105/105 109/109/109 110/110/110 
f 110/110/110 101/101/101 102/102/102 
f 96/96/96 111/111/111 109/109/109 
f 111/111/111 110/110/110 109/109/109 
f 112/112/112 111/111/111 96/96/96 
f 96/96/96 94/94/94 112/112/112 
f 110/110/110 111/111/111 113/113/113 
f 113/113/113 101/101/101 110/110/110 
f 112/112/112 114/114/114 111/111/111 
f 114/114/114 113/113/113 111/111/111 
f 115/115/115 112/112/112 94/94/94 
f 94/94/94 97/97/97 115/115/115 
f 116/116/116 114/114/114 112/112/112 
f 112/112/112 115/115/115 116/116/116 
f 113/113/113 117/117/117 101/101/101 
f 117/117/117 100/100/100 101/101/101 
f 113/113/113 114/114/114 118/118/118 
f 118/118/118 117/117/117 113/113/113 
f 116/116/116 119/119/119 114/114/114 
f 119/119/119 118/118/118 114/114/114 
f 100/100/100 117/117/117 120/120/120 
f 120/120/120 99/99/99 100/100/100 
f 118/118/118 121/121/121 117/117/117 
f 121/121/121 120/120/120 117/117/117 
f 118/118/118 119/119/119 122/122/122 
f 121/121/121 118/118/118 122/122/122 
f 123/123/123 119/119/119 116/116/116 
f 122/122/122 124/124/124 121/121/121 
f 120/120/120 121/121/121 125/125/125 
f 124/124/124 125/125/125 121/121/121 
f 126/126/126 120/120/120 125/125/125 
f 99/99/99 120/120/120 126/126/126 
f 125/125/125 124/124/124 127/127/127 
f 128/128/128 125/125/125 127/127/127 
f 124/124/124 128/128/128 127/127/127 
f 126/126/126 125/125/125 128/128/128 
f 124/124/124 122/122/122 129/129/129 
f 126/126/126 130/130/130 99/99/99 
f 97/97/97 99/99/99 130/130/130 
f 115/115/115 97/97/97 130/130/130 
f 122/122/122 131/131/131 129/129/129 
f 131/131/131 124/124/124 129/129/129 
f 131/131/131 122/122/122 119/119/119 
f 131/131/131 128/128/128 124/124/124 
f 119/119/119 123/123/123 131/131/131 
f 115/115/115 130/130/130 132/132/132 
f 132/132/132 116/116/116 115/115/115 
f 116/116/116 132/132/132 123/123/123 
f 133/133/133 131/131/131 123/123/123 
f 134/134/134 131/131/131 133/133/133 
f 123/123/123 134/134/134 133/133/133 
f 131/131/131 134/134/134 128/128/128 
f 134/134/134 123/123/123 132/132/132 
f 135/135/135 132/132/132 130/130/130 
f 132/132/132 135/135/135 134/134/134 
f 130/130/130 126/126/126 135/135/135 
f 128/128/128 135/135/135 126/126/126 
f 135/135/135 136/136/136 134/134/134 
f 128/128/128 134/134/134 136/136/136 
f 135/135/135 128/128/128 136/136/136 

